<svg xmlns="http://www.w3.org/2000/svg" xmlns:xlink="http://www.w3.org/1999/xlink" width="500" zoomAndPan="magnify" viewBox="0 0 375 374.999991" height="500" preserveAspectRatio="xMidYMid meet" version="1.0"><defs><clipPath id="58e3d52b0b"><path d="M 76.636719 185.089844 L 298.539062 185.089844 L 298.539062 282.121094 L 76.636719 282.121094 Z M 76.636719 185.089844 " clip-rule="nonzero"/></clipPath><clipPath id="11e9a4c9f2"><path d="M 76.636719 57.125 L 298.546875 57.125 L 298.546875 154 L 76.636719 154 Z M 76.636719 57.125 " clip-rule="nonzero"/></clipPath></defs><g clip-path="url(#58e3d52b0b)"><path fill="#ffffff" d="M 82.835938 234.367188 L 92.871094 230.101562 C 92.960938 230.324219 93.070312 230.539062 93.203125 230.746094 C 114.070312 262.914062 149.398438 282.121094 187.703125 282.121094 C 201.234375 282.121094 214.464844 279.742188 227.03125 275.058594 C 239.171875 270.53125 250.371094 263.980469 260.308594 255.582031 C 280.328125 238.667969 293.886719 215.234375 298.480469 189.585938 C 298.847656 187.542969 297.484375 185.585938 295.441406 185.21875 C 293.394531 184.851562 291.4375 186.214844 291.070312 188.261719 C 282.105469 238.285156 238.632812 274.59375 187.703125 274.59375 C 152.15625 274.59375 119.355469 256.867188 99.84375 227.140625 L 108.445312 223.488281 C 111.648438 222.128906 112.175781 217.8125 109.394531 215.722656 L 87.167969 198.992188 C 84.390625 196.902344 80.386719 198.601562 79.964844 202.054688 L 76.585938 229.660156 C 76.164062 233.113281 79.636719 235.726562 82.835938 234.367188 " fill-opacity="1" fill-rule="nonzero"/></g><g clip-path="url(#11e9a4c9f2)"><path fill="#ffffff" d="M 80.046875 153.460938 C 80.28125 153.503906 80.507812 153.523438 80.734375 153.523438 C 82.515625 153.523438 84.097656 152.257812 84.433594 150.445312 C 93.613281 100.730469 137.042969 64.648438 187.703125 64.648438 C 222.878906 64.648438 255.480469 82.085938 275.046875 111.324219 L 266.285156 115.128906 C 263.09375 116.511719 262.601562 120.832031 265.394531 122.898438 L 287.753906 139.453125 C 290.550781 141.523438 294.535156 139.792969 294.933594 136.335938 L 298.09375 108.703125 C 298.488281 105.25 294.996094 102.664062 291.804688 104.046875 L 282.007812 108.304688 C 281.921875 108.105469 281.820312 107.914062 281.699219 107.726562 C 260.773438 76.039062 225.636719 57.125 187.703125 57.125 C 174.222656 57.125 161.035156 59.484375 148.507812 64.132812 C 136.40625 68.628906 125.238281 75.136719 115.3125 83.480469 C 95.335938 100.269531 81.742188 123.566406 77.03125 149.078125 C 76.652344 151.121094 78.003906 153.085938 80.046875 153.460938 " fill-opacity="1" fill-rule="nonzero"/></g><path fill="#ffffff" d="M 254.15625 159.230469 C 252.078125 159.230469 250.394531 160.914062 250.394531 162.992188 C 250.394531 165.070312 252.078125 166.753906 254.15625 166.753906 L 269.546875 166.753906 C 271.625 166.753906 273.3125 165.070312 273.3125 162.992188 C 273.3125 160.914062 271.625 159.230469 269.546875 159.230469 L 254.15625 159.230469 " fill-opacity="1" fill-rule="nonzero"/><path fill="#ffffff" d="M 191.292969 98.183594 L 191.292969 82.796875 C 191.292969 80.722656 189.605469 79.035156 187.527344 79.035156 C 185.449219 79.035156 183.761719 80.722656 183.761719 82.796875 L 183.761719 98.183594 C 183.761719 100.261719 185.449219 101.945312 187.527344 101.945312 C 189.605469 101.945312 191.292969 100.261719 191.292969 98.183594 " fill-opacity="1" fill-rule="nonzero"/><path fill="#ffffff" d="M 143 120.128906 C 144.472656 118.660156 144.472656 116.277344 143 114.808594 L 132.117188 103.933594 C 130.648438 102.460938 128.265625 102.460938 126.796875 103.933594 C 125.324219 105.402344 125.324219 107.785156 126.796875 109.253906 L 137.679688 120.128906 C 139.148438 121.601562 141.53125 121.601562 143 120.128906 " fill-opacity="1" fill-rule="nonzero"/><path fill="#ffffff" d="M 248.277344 103.933594 C 246.808594 102.460938 244.421875 102.460938 242.953125 103.933594 L 232.070312 114.808594 C 230.601562 116.277344 230.601562 118.660156 232.070312 120.128906 C 233.539062 121.601562 235.925781 121.601562 237.394531 120.128906 L 248.277344 109.253906 C 249.746094 107.785156 249.746094 105.402344 248.277344 103.933594 " fill-opacity="1" fill-rule="nonzero"/><path fill="#ffffff" d="M 242.222656 229.472656 C 243.691406 230.941406 246.074219 230.941406 247.546875 229.472656 C 249.015625 228.003906 249.015625 225.621094 247.546875 224.152344 L 236.664062 213.273438 C 235.191406 211.804688 232.808594 211.804688 231.339844 213.273438 C 229.871094 214.742188 229.871094 217.125 231.339844 218.597656 L 242.222656 229.472656 " fill-opacity="1" fill-rule="nonzero"/><path fill="#ffffff" d="M 132.84375 229.492188 L 143.726562 218.613281 C 145.195312 217.144531 145.195312 214.761719 143.726562 213.292969 C 142.253906 211.824219 139.871094 211.824219 138.402344 213.292969 L 127.519531 224.171875 C 126.050781 225.640625 126.050781 228.023438 127.519531 229.492188 C 128.988281 230.960938 131.375 230.960938 132.84375 229.492188 " fill-opacity="1" fill-rule="nonzero"/><path fill="#ffffff" d="M 105.542969 159.230469 C 103.464844 159.230469 101.78125 160.914062 101.78125 162.992188 C 101.78125 165.070312 103.464844 166.753906 105.542969 166.753906 L 120.933594 166.753906 C 123.011719 166.753906 124.699219 165.070312 124.699219 162.992188 C 124.699219 160.914062 123.011719 159.230469 120.933594 159.230469 L 105.542969 159.230469 " fill-opacity="1" fill-rule="nonzero"/><path fill="#ffffff" d="M 169.820312 202.539062 C 168.875 203.597656 167.199219 202.4375 167.851562 201.179688 L 182.660156 172.71875 C 183.078125 171.917969 182.496094 170.960938 181.589844 170.960938 L 171.980469 170.960938 C 171.085938 170.960938 170.503906 170.015625 170.902344 169.214844 L 188.996094 132.929688 C 189.203125 132.519531 189.621094 132.261719 190.078125 132.261719 L 208.117188 132.261719 C 209.066406 132.261719 209.644531 133.308594 209.136719 134.109375 L 194.574219 157.128906 C 194.066406 157.929688 194.644531 158.980469 195.59375 158.980469 L 206.167969 158.980469 C 207.210938 158.980469 207.761719 160.210938 207.066406 160.988281 Z M 212.042969 205.59375 C 216.535156 198.277344 239.554688 173.273438 228.683594 146.664062 C 217.8125 120.054688 192.742188 118.5 187.535156 118.5 C 182.324219 118.5 157.253906 120.054688 146.382812 146.664062 C 135.511719 173.273438 158.53125 198.277344 163.023438 205.59375 C 167.515625 212.914062 165.183594 223.390625 168.179688 225.054688 C 171.175781 226.71875 203.890625 226.71875 206.886719 225.054688 C 209.882812 223.390625 207.550781 212.914062 212.042969 205.59375 " fill-opacity="1" fill-rule="nonzero"/><path fill="#ffffff" d="M 174.628906 233.503906 C 172.632812 233.386719 171.058594 233.246094 169.785156 233.085938 L 169.785156 248.652344 C 169.785156 248.949219 169.917969 249.230469 170.144531 249.421875 L 176.105469 254.425781 C 176.285156 254.578125 176.515625 254.664062 176.75 254.664062 C 177.136719 254.664062 177.488281 254.886719 177.65625 255.234375 L 179.773438 259.636719 C 179.941406 259.984375 180.292969 260.207031 180.675781 260.207031 L 194.390625 260.207031 C 194.773438 260.207031 195.125 259.984375 195.292969 259.636719 L 197.410156 255.234375 C 197.578125 254.886719 197.929688 254.664062 198.316406 254.664062 C 198.550781 254.664062 198.78125 254.578125 198.960938 254.425781 L 204.921875 249.421875 C 205.148438 249.230469 205.28125 248.949219 205.28125 248.652344 L 205.28125 233.085938 C 204.007812 233.246094 202.433594 233.386719 200.4375 233.503906 C 196.875 233.710938 192.292969 233.828125 187.53125 233.828125 C 182.773438 233.828125 178.191406 233.710938 174.628906 233.503906 " fill-opacity="1" fill-rule="nonzero"/></svg>