<svg xmlns="http://www.w3.org/2000/svg" xmlns:xlink="http://www.w3.org/1999/xlink" width="500" zoomAndPan="magnify" viewBox="0 0 375 374.999991" height="500" preserveAspectRatio="xMidYMid meet" version="1.0"><defs><clipPath id="1142913603"><path d="M 112.5 170 L 261 170 L 261 261.375 L 112.5 261.375 Z M 112.5 170 " clip-rule="nonzero"/></clipPath><clipPath id="a788b87649"><path d="M 167 113.625 L 261 113.625 L 261 183 L 167 183 Z M 167 113.625 " clip-rule="nonzero"/></clipPath><clipPath id="4505db3bf9"><path d="M 126 113.625 L 171 113.625 L 171 168 L 126 168 Z M 126 113.625 " clip-rule="nonzero"/></clipPath></defs><g clip-path="url(#1142913603)"><path fill="#ffffff" d="M 248.839844 193.320312 C 247.273438 190.632812 244.363281 189.066406 241.449219 189.066406 L 224.886719 189.066406 C 224.214844 189.066406 223.765625 189.289062 223.316406 189.738281 C 222.871094 190.1875 222.648438 190.632812 222.648438 191.304688 L 222.648438 227.796875 L 182.128906 227.796875 C 183.023438 226.675781 183.695312 225.332031 184.367188 223.988281 C 186.828125 219.066406 188.171875 213.46875 188.171875 207.648438 C 188.171875 187.5 171.605469 170.261719 150.339844 170.261719 C 129.070312 170.261719 112.503906 187.5 112.503906 207.648438 C 112.503906 228.242188 129.519531 245.03125 150.339844 245.03125 C 154.367188 245.03125 158.175781 244.363281 161.753906 243.242188 L 161.753906 246.375 C 161.753906 247.71875 162.652344 248.613281 163.996094 248.613281 L 176.082031 248.613281 C 176.082031 248.839844 176.082031 248.839844 176.082031 249.0625 C 176.082031 255.777344 181.679688 261.375 188.394531 261.375 C 195.113281 261.375 200.707031 255.777344 200.707031 249.0625 C 200.707031 248.839844 200.707031 248.839844 200.707031 248.613281 L 225.109375 248.613281 C 225.109375 248.839844 225.109375 248.839844 225.109375 249.0625 C 225.109375 255.777344 230.707031 261.375 237.421875 261.375 C 244.136719 261.375 249.734375 255.777344 249.734375 249.0625 C 249.734375 248.839844 249.734375 248.839844 249.734375 248.613281 L 258.015625 248.613281 C 259.359375 248.613281 260.253906 247.71875 260.253906 246.375 L 260.253906 214.585938 C 260.253906 213.019531 259.808594 211.453125 258.914062 210.109375 Z M 245.03125 195.558594 L 255.332031 212.347656 L 227.125 212.347656 L 227.125 193.542969 L 241.449219 193.542969 C 242.792969 193.542969 244.136719 194.441406 245.03125 195.558594 Z M 227.125 216.824219 L 255.777344 216.824219 L 255.777344 227.796875 L 227.125 227.796875 Z M 158.175781 239.660156 C 160.414062 236.078125 161.980469 231.152344 163.324219 225.558594 L 178.546875 225.558594 C 173.84375 232.496094 166.457031 237.644531 158.175781 239.660156 Z M 142.054688 225.332031 L 158.621094 225.332031 C 156.605469 234.960938 153.023438 240.554688 150.339844 240.554688 C 147.652344 240.554688 144.070312 234.960938 142.054688 225.332031 Z M 119.894531 194.214844 L 136.683594 194.214844 C 136.234375 197.796875 135.789062 201.601562 135.789062 205.183594 L 116.984375 205.183594 C 117.429688 201.378906 118.324219 197.796875 119.894531 194.214844 Z M 150.339844 174.738281 C 153.023438 174.738281 156.605469 180.335938 158.621094 189.960938 L 142.054688 189.960938 C 144.070312 180.335938 147.652344 174.738281 150.339844 174.738281 Z M 159.515625 194.214844 C 159.964844 197.574219 160.414062 201.15625 160.414062 205.183594 L 140.488281 205.183594 C 140.488281 201.15625 140.9375 197.351562 141.382812 194.214844 Z M 180.785156 220.855469 L 163.996094 220.855469 C 164.441406 217.273438 164.890625 213.46875 164.890625 209.886719 L 183.695312 209.886719 C 183.246094 213.691406 182.351562 217.496094 180.785156 220.855469 Z M 183.46875 205.410156 L 164.664062 205.410156 C 164.664062 201.601562 164.21875 198.023438 163.769531 194.441406 L 180.558594 194.441406 C 182.351562 197.796875 183.246094 201.378906 183.46875 205.410156 Z M 116.984375 209.886719 L 135.789062 209.886719 C 135.789062 213.691406 136.234375 217.273438 136.683594 220.855469 L 119.894531 220.855469 C 118.324219 217.496094 117.429688 213.691406 116.984375 209.886719 Z M 140.265625 209.886719 L 160.1875 209.886719 C 160.1875 213.914062 159.742188 217.722656 159.292969 220.855469 L 141.160156 220.855469 C 140.710938 217.496094 140.488281 213.914062 140.265625 209.886719 Z M 178.320312 189.738281 L 163.097656 189.738281 C 161.980469 184.140625 160.1875 178.992188 157.949219 175.636719 C 166.457031 177.648438 173.84375 182.800781 178.320312 189.738281 Z M 142.503906 175.636719 C 140.265625 179.21875 138.699219 184.140625 137.355469 189.738281 L 122.355469 189.738281 C 126.832031 182.800781 133.996094 177.648438 142.503906 175.636719 Z M 122.355469 225.332031 L 137.578125 225.332031 C 138.699219 230.929688 140.488281 236.078125 142.726562 239.4375 C 133.996094 237.644531 126.832031 232.496094 122.355469 225.332031 Z M 188.394531 256.898438 C 184.140625 256.898438 180.558594 253.316406 180.558594 249.0625 C 180.558594 244.808594 184.140625 241.226562 188.394531 241.226562 C 192.648438 241.226562 196.230469 244.808594 196.230469 249.0625 C 196.453125 253.316406 192.871094 256.898438 188.394531 256.898438 Z M 237.421875 256.898438 C 233.167969 256.898438 229.585938 253.316406 229.585938 249.0625 C 229.585938 244.808594 233.167969 241.226562 237.421875 241.226562 C 241.675781 241.226562 245.257812 244.808594 245.257812 249.0625 C 245.480469 253.316406 241.898438 256.898438 237.421875 256.898438 Z M 255.777344 244.136719 L 248.839844 244.136719 C 247.046875 239.660156 242.570312 236.75 237.421875 236.75 C 232.273438 236.75 228.019531 239.882812 226.003906 244.136719 L 199.8125 244.136719 C 198.023438 239.660156 193.542969 236.75 188.394531 236.75 C 183.246094 236.75 178.992188 239.882812 176.976562 244.136719 L 166.234375 244.136719 L 166.234375 241.449219 C 170.933594 239.210938 175.1875 236.078125 178.546875 232.273438 L 255.777344 232.273438 Z M 255.777344 244.136719 " fill-opacity="1" fill-rule="nonzero"/></g><g clip-path="url(#a788b87649)"><path fill="#ffffff" d="M 167.574219 154.367188 C 167.574219 155.039062 168.023438 155.710938 168.695312 156.160156 L 176.753906 161.308594 C 174.066406 164.21875 172.277344 166.234375 173.171875 168.472656 C 173.84375 170.039062 175.410156 170.261719 177.875 170.261719 C 178.769531 170.261719 179.886719 170.261719 181.007812 170.039062 L 179.664062 179.441406 C 179.664062 180.113281 179.886719 180.785156 180.335938 181.457031 C 180.785156 181.902344 181.679688 182.128906 182.351562 182.128906 L 187.5 181.230469 C 188.171875 181.007812 188.84375 180.558594 189.066406 179.886719 L 194.214844 168.472656 C 201.15625 166.679688 212.347656 163.324219 225.109375 158.398438 L 226.453125 177.425781 C 226.453125 178.992188 228.019531 179.886719 229.585938 179.441406 L 237.199219 176.53125 C 237.871094 176.308594 238.539062 175.636719 238.539062 174.964844 L 243.242188 149.441406 C 256.898438 141.382812 262.496094 134.21875 259.585938 127.726562 C 256.675781 121.460938 247.496094 121.011719 232.496094 126.386719 L 209.664062 114.074219 C 208.992188 113.625 208.09375 113.625 207.425781 114.074219 L 200.484375 118.101562 C 199.8125 118.550781 199.363281 118.996094 199.363281 119.894531 C 199.363281 120.566406 199.589844 121.238281 200.035156 121.683594 L 213.914062 134.890625 C 202.050781 141.609375 192.199219 148.101562 186.378906 152.128906 L 174.292969 148.773438 C 173.621094 148.546875 172.726562 148.773438 172.277344 149.21875 L 168.246094 152.578125 C 167.800781 153.023438 167.574219 153.695312 167.574219 154.367188 Z M 174.292969 153.25 L 186.378906 156.605469 C 186.828125 156.832031 187.722656 156.605469 188.394531 156.160156 C 194.214844 151.683594 205.410156 144.519531 218.839844 137.128906 C 220.183594 136.460938 220.40625 134.445312 219.289062 133.550781 L 205.183594 120.339844 L 208.542969 118.550781 L 231.152344 130.863281 C 231.152344 130.863281 231.378906 130.863281 231.378906 130.863281 C 231.824219 131.085938 232.273438 131.085938 232.945312 130.863281 C 245.480469 126.160156 253.539062 125.714844 255.332031 129.519531 C 257.121094 133.324219 251.523438 139.371094 240.109375 145.863281 C 239.660156 146.085938 239.210938 146.757812 238.988281 147.429688 L 234.0625 172.5 L 230.480469 174.066406 L 229.136719 154.816406 C 229.136719 153.472656 227.570312 152.351562 226.003906 152.800781 C 211.675781 158.621094 198.917969 162.425781 191.753906 163.996094 C 191.304688 164.21875 190.410156 164.664062 190.1875 165.335938 L 185.039062 176.753906 L 184.140625 176.976562 L 185.261719 168.023438 C 185.484375 166.679688 184.367188 165.5625 183.023438 165.5625 C 181.457031 165.5625 179.664062 165.785156 178.320312 165.785156 C 179.21875 164.664062 180.558594 163.324219 181.457031 162.203125 C 182.351562 161.308594 182.128906 159.515625 181.007812 158.84375 L 173.621094 153.921875 Z M 174.292969 153.25 " fill-opacity="1" fill-rule="nonzero"/></g><g clip-path="url(#4505db3bf9)"><path fill="#ffffff" d="M 146.53125 166.90625 C 146.980469 167.351562 147.652344 167.800781 148.324219 167.800781 C 148.996094 167.800781 149.667969 167.574219 150.113281 166.90625 L 170.039062 140.710938 C 170.488281 140.039062 170.710938 139.144531 170.261719 138.472656 C 169.816406 137.800781 169.144531 137.128906 168.246094 137.128906 L 159.742188 137.128906 L 159.742188 115.863281 C 159.742188 114.519531 158.84375 113.625 157.503906 113.625 L 139.144531 113.625 C 137.800781 113.625 136.90625 114.519531 136.90625 115.863281 L 136.90625 137.128906 L 128.398438 137.128906 C 127.503906 137.128906 126.832031 137.578125 126.386719 138.472656 C 125.9375 139.144531 126.160156 140.039062 126.609375 140.710938 Z M 139.144531 141.609375 C 140.488281 141.609375 141.382812 140.710938 141.382812 139.371094 L 141.382812 118.101562 L 155.261719 118.101562 L 155.261719 139.371094 C 155.261719 140.710938 156.160156 141.609375 157.503906 141.609375 L 163.769531 141.609375 L 148.546875 161.753906 L 133.101562 141.609375 Z M 139.144531 141.609375 " fill-opacity="1" fill-rule="nonzero"/></g><path fill="#ffffff" d="M 217.273438 208.320312 L 194.664062 208.320312 C 193.320312 208.320312 192.425781 209.214844 192.425781 210.558594 L 192.425781 223.09375 C 192.425781 224.4375 193.320312 225.332031 194.664062 225.332031 L 217.273438 225.332031 C 218.617188 225.332031 219.511719 224.4375 219.511719 223.09375 L 219.511719 210.558594 C 219.511719 209.4375 218.394531 208.320312 217.273438 208.320312 Z M 215.035156 220.855469 L 196.902344 220.855469 L 196.902344 212.796875 L 215.035156 212.796875 Z M 215.035156 220.855469 " fill-opacity="1" fill-rule="nonzero"/><path fill="#ffffff" d="M 219.511719 191.304688 C 219.511719 189.960938 218.617188 189.066406 217.273438 189.066406 L 194.664062 189.066406 C 193.320312 189.066406 192.425781 189.960938 192.425781 191.304688 L 192.425781 203.84375 C 192.425781 205.183594 193.320312 206.082031 194.664062 206.082031 L 217.273438 206.082031 C 218.617188 206.082031 219.511719 205.183594 219.511719 203.84375 Z M 215.035156 201.601562 L 196.902344 201.601562 L 196.902344 193.542969 L 215.035156 193.542969 Z M 215.035156 201.601562 " fill-opacity="1" fill-rule="nonzero"/></svg>