<svg xmlns="http://www.w3.org/2000/svg" xmlns:xlink="http://www.w3.org/1999/xlink" width="500" zoomAndPan="magnify" viewBox="0 0 375 374.999991" height="500" preserveAspectRatio="xMidYMid meet" version="1.0"><defs><clipPath id="53fb46ef00"><path d="M 122 114 L 251 114 L 251 262.5 L 122 262.5 Z M 122 114 " clip-rule="nonzero"/></clipPath></defs><path fill="#ffffff" d="M 201.375 204.84375 C 201.316406 204.84375 201.257812 204.839844 201.199219 204.835938 C 200.3125 204.738281 199.667969 203.945312 199.765625 203.058594 L 200.441406 196.777344 C 201 191.554688 204.15625 188.574219 207.496094 185.417969 C 211.917969 181.238281 216.496094 176.914062 216.496094 166.238281 C 216.496094 151.996094 204.894531 140.410156 190.632812 140.410156 C 176.371094 140.410156 164.769531 151.996094 164.769531 166.238281 C 164.769531 176.914062 169.347656 181.238281 173.769531 185.417969 C 177.109375 188.574219 180.265625 191.554688 180.824219 196.777344 L 181.5 203.058594 C 181.597656 203.945312 180.953125 204.738281 180.066406 204.835938 C 179.179688 204.933594 178.386719 204.289062 178.289062 203.402344 L 177.613281 197.121094 C 177.179688 193.078125 174.695312 190.730469 171.550781 187.761719 C 167.089844 183.546875 161.542969 178.300781 161.542969 166.238281 C 161.542969 150.21875 174.59375 137.1875 190.632812 137.1875 C 206.675781 137.1875 219.722656 150.21875 219.722656 166.238281 C 219.722656 178.300781 214.175781 183.546875 209.714844 187.761719 C 206.570312 190.730469 204.085938 193.078125 203.652344 197.121094 L 202.976562 203.402344 C 202.886719 204.230469 202.1875 204.84375 201.375 204.84375 Z M 201.375 204.84375 " fill-opacity="1" fill-rule="evenodd"/><g clip-path="url(#53fb46ef00)"><path fill="#ffffff" d="M 176.015625 259.1875 L 234.59375 259.1875 C 224.75 236.863281 231.910156 219.210938 239.472656 200.558594 C 240.417969 198.230469 241.390625 195.824219 242.335938 193.40625 C 253.246094 165.46875 246.554688 141.523438 223.984375 127.703125 C 199.164062 112.507812 164.039062 115.523438 147.28125 134.289062 C 139.316406 143.207031 128.664062 166.191406 137.550781 176.507812 C 137.972656 176.992188 138.0625 177.679688 137.78125 178.257812 C 135.980469 181.992188 132 187.722656 125.617188 195.753906 C 127.152344 198.421875 129.339844 199.96875 132.269531 200.472656 C 133 200.597656 133.550781 201.203125 133.609375 201.9375 C 133.863281 205.367188 132.910156 208.210938 130.765625 210.410156 C 132.660156 212.039062 134.320312 212.503906 135.933594 212.953125 C 136.140625 213.011719 136.339844 213.066406 136.539062 213.125 C 137.070312 213.277344 137.484375 213.691406 137.636719 214.222656 C 137.792969 214.753906 137.664062 215.324219 137.296875 215.738281 C 135.125 218.195312 134.113281 219.714844 133.644531 220.617188 C 135.816406 221.425781 137.558594 222.414062 138.84375 223.558594 C 139.277344 223.941406 139.46875 224.527344 139.351562 225.09375 C 139.117188 226.210938 138.785156 227.300781 138.464844 228.351562 C 137.832031 230.425781 137.234375 232.386719 137.425781 234.328125 C 137.777344 237.867188 139.640625 240.3125 143.128906 241.796875 C 151.421875 245.332031 165.414062 242 169.253906 238.988281 C 169.664062 238.664062 170.207031 238.5625 170.707031 238.710938 C 171.210938 238.859375 171.605469 239.238281 171.777344 239.734375 C 174.355469 247.296875 175.71875 253.53125 176.015625 259.1875 Z M 237.117188 262.414062 L 174.453125 262.414062 C 173.578125 262.414062 172.855469 261.707031 172.839844 260.828125 C 172.75 255.566406 171.640625 249.769531 169.363281 242.707031 C 163.382812 245.84375 150.414062 248.40625 141.863281 244.761719 C 137.320312 242.828125 134.675781 239.328125 134.214844 234.644531 C 133.960938 232.0625 134.679688 229.699219 135.375 227.414062 C 135.585938 226.71875 135.792969 226.046875 135.964844 225.382812 C 134.773438 224.535156 133.164062 223.796875 131.160156 223.175781 C 130.457031 222.960938 129.988281 222.289062 130.023438 221.550781 C 130.082031 220.511719 130.535156 218.898438 133.261719 215.511719 C 131.476562 214.890625 129.433594 213.851562 127.203125 211.441406 C 126.894531 211.105469 126.738281 210.652344 126.785156 210.199219 C 126.824219 209.742188 127.058594 209.328125 127.425781 209.054688 C 129.371094 207.609375 130.335938 205.78125 130.414062 203.359375 C 126.789062 202.375 124.042969 199.996094 122.242188 196.273438 C 121.976562 195.714844 122.050781 195.054688 122.4375 194.570312 C 128.445312 187.054688 132.464844 181.40625 134.417969 177.753906 C 129.199219 170.777344 130.769531 160.886719 133.082031 153.679688 C 135.96875 144.691406 141.085938 136.386719 144.875 132.144531 C 153.757812 122.195312 167.3125 116.09375 183.046875 114.960938 C 198 113.882812 213.535156 117.527344 225.671875 124.957031 C 236.566406 131.625 244.308594 140.988281 248.0625 152.027344 C 252.355469 164.648438 251.4375 178.964844 245.34375 194.578125 C 244.390625 197.015625 243.414062 199.433594 242.464844 201.769531 C 234.589844 221.183594 227.789062 237.953125 238.570312 260.097656 C 238.8125 260.597656 238.78125 261.183594 238.488281 261.652344 C 238.195312 262.128906 237.675781 262.414062 237.117188 262.414062 Z M 237.117188 262.414062 " fill-opacity="1" fill-rule="evenodd"/></g><path fill="#ffffff" d="M 192.25 226.445312 C 199.015625 226.917969 206.046875 224.160156 211.308594 218.914062 C 216.601562 213.625 219.363281 206.539062 218.839844 199.734375 C 212.328125 199.234375 205.339844 201.679688 199.910156 206.410156 C 195.039062 210.652344 192.25 216.167969 192.25 221.539062 Z M 193.734375 229.722656 C 192.625 229.722656 191.515625 229.648438 190.417969 229.496094 C 189.617188 229.386719 189.019531 228.707031 189.019531 227.898438 L 189.019531 221.539062 C 189.019531 215.238281 192.214844 208.835938 197.789062 203.980469 C 204.261719 198.34375 212.757812 195.609375 220.527344 196.671875 C 221.242188 196.769531 221.808594 197.332031 221.90625 198.050781 C 223.027344 206.222656 219.914062 214.875 213.585938 221.191406 C 208.113281 226.660156 200.886719 229.722656 193.734375 229.722656 Z M 193.734375 229.722656 " fill-opacity="1" fill-rule="evenodd"/><path fill="#ffffff" d="M 190.632812 229.511719 C 190.222656 229.511719 189.808594 229.355469 189.492188 229.039062 C 188.863281 228.410156 188.863281 227.390625 189.492188 226.761719 L 206.464844 209.8125 C 207.097656 209.179688 208.121094 209.179688 208.75 209.8125 C 209.378906 210.441406 209.378906 211.460938 208.75 212.089844 L 191.773438 229.039062 C 191.460938 229.355469 191.042969 229.511719 190.632812 229.511719 Z M 190.632812 229.511719 " fill-opacity="1" fill-rule="evenodd"/><path fill="#ffffff" d="M 162.425781 199.734375 C 161.902344 206.539062 164.664062 213.625 169.960938 218.914062 C 175.21875 224.160156 182.246094 226.917969 189.019531 226.445312 L 189.019531 221.539062 C 189.019531 216.167969 186.226562 210.652344 181.355469 206.410156 C 175.925781 201.679688 168.941406 199.238281 162.425781 199.734375 Z M 187.53125 229.722656 C 180.378906 229.722656 173.152344 226.660156 167.679688 221.191406 C 161.351562 214.875 158.238281 206.222656 159.359375 198.050781 C 159.457031 197.332031 160.023438 196.769531 160.742188 196.671875 C 168.507812 195.609375 177.007812 198.34375 183.476562 203.980469 C 189.050781 208.835938 192.246094 215.238281 192.246094 221.539062 L 192.246094 227.898438 C 192.246094 228.707031 191.648438 229.386719 190.851562 229.496094 C 189.75 229.648438 188.640625 229.722656 187.53125 229.722656 Z M 187.53125 229.722656 " fill-opacity="1" fill-rule="evenodd"/><path fill="#ffffff" d="M 190.632812 229.511719 C 190.222656 229.511719 189.808594 229.355469 189.492188 229.039062 L 172.515625 212.089844 C 171.886719 211.460938 171.886719 210.441406 172.515625 209.8125 C 173.144531 209.179688 174.167969 209.179688 174.800781 209.8125 L 191.773438 226.761719 C 192.402344 227.390625 192.402344 228.410156 191.773438 229.039062 C 191.460938 229.355469 191.042969 229.511719 190.632812 229.511719 Z M 190.632812 229.511719 " fill-opacity="1" fill-rule="evenodd"/></svg>