<svg xmlns="http://www.w3.org/2000/svg" xmlns:xlink="http://www.w3.org/1999/xlink" width="500" zoomAndPan="magnify" viewBox="0 0 375 374.999991" height="500" preserveAspectRatio="xMidYMid meet" version="1.0"><defs><clipPath id="145f8bf4b2"><path d="M 120.9375 112.570312 L 254.4375 112.570312 L 254.4375 262.429688 L 120.9375 262.429688 Z M 120.9375 112.570312 " clip-rule="nonzero"/></clipPath></defs><g clip-path="url(#145f8bf4b2)"><path fill="#ffffff" d="M 247.347656 221.84375 C 246.507812 223.285156 245.15625 224.320312 243.542969 224.75 C 241.914062 225.1875 240.234375 224.957031 238.789062 224.125 C 237.34375 223.292969 236.308594 221.945312 235.875 220.335938 C 235.4375 218.726562 235.667969 217.042969 236.5 215.597656 C 237.335938 214.15625 238.6875 213.121094 240.300781 212.691406 C 240.839844 212.546875 241.382812 212.472656 241.929688 212.472656 C 243.015625 212.472656 244.085938 212.757812 245.050781 213.316406 C 246.503906 214.148438 247.535156 215.496094 247.96875 217.105469 C 248.402344 218.714844 248.175781 220.398438 247.347656 221.84375 Z M 187.695312 206.230469 C 177.335938 206.230469 168.90625 197.828125 168.90625 187.5 C 168.90625 177.171875 177.335938 168.765625 187.695312 168.765625 C 198.050781 168.765625 206.480469 177.171875 206.480469 187.5 C 206.480469 197.828125 198.050781 206.230469 187.695312 206.230469 Z M 193.957031 249.941406 C 193.957031 253.382812 191.148438 256.183594 187.695312 256.183594 C 184.238281 256.183594 181.433594 253.382812 181.433594 249.941406 C 181.433594 246.5 184.238281 243.695312 187.695312 243.695312 C 191.148438 243.695312 193.957031 246.5 193.957031 249.941406 Z M 181.433594 125.058594 C 181.433594 121.617188 184.238281 118.816406 187.695312 118.816406 C 191.148438 118.816406 193.957031 121.617188 193.957031 125.058594 C 193.957031 128.5 191.148438 131.304688 187.695312 131.304688 C 184.238281 131.304688 181.433594 128.5 181.433594 125.058594 Z M 139.515625 220.335938 C 139.078125 221.945312 138.046875 223.292969 136.597656 224.125 C 135.148438 224.957031 133.472656 225.1875 131.847656 224.75 C 130.230469 224.320312 128.878906 223.285156 128.042969 221.84375 C 127.210938 220.398438 126.984375 218.714844 127.417969 217.105469 C 127.851562 215.496094 128.886719 214.148438 130.335938 213.316406 C 131.300781 212.757812 132.371094 212.472656 133.460938 212.472656 C 134 212.472656 134.550781 212.546875 135.085938 212.691406 C 136.703125 213.121094 138.050781 214.15625 138.890625 215.597656 C 139.722656 217.042969 139.949219 218.726562 139.515625 220.335938 Z M 138.890625 159.402344 C 138.050781 160.84375 136.703125 161.878906 135.085938 162.308594 C 133.464844 162.738281 131.777344 162.519531 130.335938 161.683594 C 128.886719 160.851562 127.851562 159.503906 127.417969 157.894531 C 126.984375 156.285156 127.210938 154.601562 128.042969 153.15625 C 128.878906 151.714844 130.230469 150.679688 131.847656 150.25 C 132.382812 150.105469 132.933594 150.03125 133.472656 150.03125 C 134.5625 150.03125 135.628906 150.316406 136.597656 150.875 C 138.046875 151.707031 139.078125 153.054688 139.515625 154.664062 C 139.949219 156.273438 139.722656 157.957031 138.890625 159.402344 Z M 235.875 154.664062 C 236.308594 153.054688 237.34375 151.707031 238.789062 150.875 C 239.757812 150.316406 240.828125 150.03125 241.914062 150.03125 C 242.453125 150.03125 243.003906 150.105469 243.542969 150.25 C 245.15625 150.679688 246.507812 151.714844 247.347656 153.15625 C 248.175781 154.601562 248.402344 156.285156 247.96875 157.894531 C 247.535156 159.503906 246.503906 160.851562 245.050781 161.683594 C 243.609375 162.515625 241.921875 162.742188 240.300781 162.308594 C 238.6875 161.878906 237.335938 160.84375 236.5 159.402344 C 235.667969 157.957031 235.4375 156.273438 235.875 154.664062 Z M 248.183594 207.90625 C 245.285156 206.242188 241.910156 205.796875 238.679688 206.660156 C 236.492188 207.246094 234.574219 208.421875 233.027344 209.992188 L 210.777344 197.1875 C 212.039062 194.207031 212.742188 190.933594 212.742188 187.5 C 212.742188 184.066406 212.039062 180.792969 210.777344 177.8125 L 233.027344 165.007812 C 234.574219 166.578125 236.492188 167.753906 238.679688 168.339844 C 239.757812 168.632812 240.851562 168.773438 241.941406 168.773438 C 244.109375 168.773438 246.25 168.203125 248.183594 167.09375 C 251.082031 165.425781 253.15625 162.734375 254.015625 159.511719 C 254.882812 156.289062 254.441406 152.921875 252.765625 150.035156 C 251.09375 147.148438 248.390625 145.082031 245.160156 144.21875 C 241.941406 143.355469 238.558594 143.800781 235.660156 145.464844 C 232.761719 147.132812 230.6875 149.824219 229.824219 153.046875 C 229.234375 155.234375 229.300781 157.472656 229.894531 159.597656 L 207.558594 172.457031 C 203.585938 167.253906 197.648438 163.703125 190.824219 162.839844 L 190.824219 137.101562 C 196.210938 135.707031 200.21875 130.859375 200.21875 125.058594 C 200.21875 118.171875 194.597656 112.570312 187.695312 112.570312 C 180.789062 112.570312 175.167969 118.171875 175.167969 125.058594 C 175.167969 130.859375 179.179688 135.707031 184.5625 137.101562 L 184.5625 162.839844 C 177.742188 163.703125 171.804688 167.253906 167.828125 172.457031 L 145.492188 159.597656 C 146.085938 157.472656 146.152344 155.234375 145.5625 153.046875 C 144.699219 149.824219 142.625 147.132812 139.726562 145.464844 C 136.828125 143.800781 133.453125 143.359375 130.226562 144.21875 C 126.996094 145.082031 124.292969 147.148438 122.625 150.035156 C 120.949219 152.921875 120.503906 156.289062 121.371094 159.511719 C 122.234375 162.734375 124.304688 165.425781 127.203125 167.09375 C 129.136719 168.203125 131.277344 168.773438 133.449219 168.773438 C 134.539062 168.773438 135.628906 168.632812 136.707031 168.339844 C 138.898438 167.753906 140.8125 166.578125 142.359375 165.007812 L 164.609375 177.8125 C 163.347656 180.792969 162.644531 184.066406 162.644531 187.5 C 162.644531 190.933594 163.347656 194.207031 164.609375 197.1875 L 142.359375 209.992188 C 140.8125 208.421875 138.898438 207.246094 136.707031 206.660156 C 133.492188 205.792969 130.101562 206.238281 127.203125 207.90625 C 124.304688 209.574219 122.234375 212.265625 121.371094 215.488281 C 120.503906 218.710938 120.949219 222.078125 122.625 224.964844 C 124.292969 227.851562 126.996094 229.917969 130.226562 230.78125 C 131.300781 231.074219 132.398438 231.214844 133.484375 231.214844 C 135.65625 231.214844 137.796875 230.644531 139.726562 229.535156 C 142.625 227.867188 144.699219 225.175781 145.5625 221.953125 C 146.152344 219.765625 146.085938 217.527344 145.492188 215.402344 L 167.828125 202.542969 C 171.804688 207.746094 177.742188 211.296875 184.5625 212.160156 L 184.5625 237.898438 C 179.179688 239.292969 175.167969 244.140625 175.167969 249.941406 C 175.167969 256.828125 180.789062 262.429688 187.695312 262.429688 C 194.597656 262.429688 200.21875 256.828125 200.21875 249.941406 C 200.21875 244.140625 196.210938 239.292969 190.824219 237.898438 L 190.824219 212.160156 C 197.648438 211.296875 203.585938 207.746094 207.558594 202.542969 L 229.894531 215.402344 C 229.300781 217.527344 229.234375 219.765625 229.824219 221.953125 C 230.6875 225.175781 232.761719 227.867188 235.660156 229.535156 C 237.589844 230.644531 239.730469 231.214844 241.902344 231.214844 C 242.992188 231.214844 244.085938 231.074219 245.160156 230.78125 C 248.390625 229.917969 251.09375 227.851562 252.765625 224.964844 C 254.441406 222.078125 254.882812 218.710938 254.015625 215.488281 C 253.15625 212.265625 251.082031 209.574219 248.183594 207.90625 " fill-opacity="1" fill-rule="nonzero"/></g></svg>