<svg xmlns="http://www.w3.org/2000/svg" xmlns:xlink="http://www.w3.org/1999/xlink" width="500" zoomAndPan="magnify" viewBox="0 0 375 374.999991" height="500" preserveAspectRatio="xMidYMid meet" version="1.0"><defs><clipPath id="0636455fdb"><path d="M 124.78125 112.5 L 250.03125 112.5 L 250.03125 262.5 L 124.78125 262.5 Z M 124.78125 112.5 " clip-rule="nonzero"/></clipPath></defs><path fill="#ffffff" d="M 172.03125 238.882812 C 172.03125 242.339844 169.222656 245.152344 165.769531 245.152344 C 162.316406 245.152344 159.503906 242.339844 159.503906 238.882812 C 159.503906 235.421875 162.316406 232.609375 165.769531 232.609375 C 169.222656 232.609375 172.03125 235.421875 172.03125 238.882812 Z M 156.179688 238.882812 C 156.179688 244.175781 160.484375 248.484375 165.769531 248.484375 C 171.054688 248.484375 175.355469 244.175781 175.355469 238.882812 C 175.355469 233.585938 171.054688 229.277344 165.769531 229.277344 C 160.484375 229.277344 156.179688 233.585938 156.179688 238.882812 " fill-opacity="1" fill-rule="nonzero"/><g clip-path="url(#0636455fdb)"><path fill="#ffffff" d="M 197.371094 117.558594 L 201.003906 124.128906 C 201.441406 124.925781 202.277344 125.417969 203.1875 125.417969 L 232.808594 125.417969 L 234.390625 128.285156 L 154.605469 128.285156 L 160.53125 117.558594 Z M 245.042969 138.96875 L 132.617188 138.96875 C 131.050781 138.96875 129.777344 137.695312 129.777344 136.125 C 129.777344 134.554688 131.050781 133.28125 132.617188 133.28125 L 245.042969 133.28125 Z M 148.738281 153.039062 L 138.972656 143.964844 L 148.0625 143.964844 Z M 189.296875 238.882812 C 189.296875 225.886719 178.742188 215.320312 165.769531 215.320312 C 163.226562 215.320312 160.78125 215.730469 158.484375 216.480469 L 153.835938 154.292969 L 153.0625 143.964844 L 235.9375 143.964844 L 227.617188 257.449219 L 180.226562 257.449219 C 185.738281 253.132812 189.296875 246.417969 189.296875 238.882812 Z M 165.769531 220.3125 C 175.992188 220.3125 184.308594 228.640625 184.308594 238.882812 C 184.308594 249.117188 175.992188 257.449219 165.769531 257.449219 C 155.546875 257.449219 147.226562 249.117188 147.226562 238.882812 C 147.226562 228.640625 155.546875 220.3125 165.769531 220.3125 Z M 247.539062 128.285156 L 240.089844 128.285156 L 236.457031 121.710938 C 236.019531 120.917969 235.183594 120.421875 234.277344 120.421875 L 204.65625 120.421875 L 201.023438 113.851562 C 200.585938 113.054688 199.75 112.5625 198.84375 112.5625 L 159.0625 112.5625 C 158.15625 112.5625 157.320312 113.054688 156.878906 113.851562 L 148.90625 128.285156 L 132.617188 128.285156 C 128.300781 128.285156 124.792969 131.800781 124.792969 136.125 C 124.792969 140.085938 127.742188 143.359375 131.554688 143.882812 L 149.285156 160.359375 L 153.648438 218.695312 C 146.820312 222.824219 142.242188 230.324219 142.242188 238.882812 C 142.242188 251.871094 152.796875 262.441406 165.769531 262.441406 L 229.933594 262.441406 C 231.242188 262.441406 232.324219 261.433594 232.421875 260.128906 L 240.9375 143.964844 L 247.539062 143.964844 C 248.914062 143.964844 250.03125 142.84375 250.03125 141.46875 L 250.03125 130.78125 C 250.03125 129.402344 248.914062 128.285156 247.539062 128.285156 " fill-opacity="1" fill-rule="nonzero"/></g></svg>