<svg xmlns="http://www.w3.org/2000/svg" xmlns:xlink="http://www.w3.org/1999/xlink" width="1230" zoomAndPan="magnify" viewBox="0 0 922.5 708.749984" height="945" preserveAspectRatio="xMidYMid meet" version="1.0"><defs><g/><clipPath id="8ab8f724e5"><path d="M 201.066406 394.339844 L 466 394.339844 L 466 637.550781 L 201.066406 637.550781 Z M 201.066406 394.339844 " clip-rule="nonzero"/></clipPath><clipPath id="52a389b147"><path d="M 479 394.339844 L 744 394.339844 L 744 637.550781 L 479 637.550781 Z M 479 394.339844 " clip-rule="nonzero"/></clipPath><clipPath id="40633630a0"><path d="M 551.015625 121 L 760.296875 121 L 760.296875 432.59375 L 551.015625 432.59375 Z M 551.015625 121 " clip-rule="nonzero"/></clipPath></defs><path fill="#417e5c" d="M 196.8125 432.230469 L 351.925781 381.832031 C 339.507812 334.980469 355.242188 284.671875 393.753906 253.230469 L 297.886719 121.28125 C 205.054688 192.335938 161.921875 315.375 196.8125 432.230469 " fill-opacity="1" fill-rule="nonzero"/><g clip-path="url(#8ab8f724e5)"><path fill="#22a3dc" d="M 356.222656 394.964844 L 201.078125 445.371094 C 240.785156 558.503906 345.714844 634.730469 465.625 637.550781 L 465.628906 474.457031 C 415.710938 471.722656 373.542969 439.5 356.222656 394.964844 " fill-opacity="1" fill-rule="nonzero"/></g><g clip-path="url(#52a389b147)"><path fill="#8abdc4" d="M 588.839844 394.960938 C 571.519531 439.496094 529.359375 471.714844 479.445312 474.457031 L 479.445312 637.550781 C 599.34375 634.730469 704.273438 558.503906 743.988281 445.378906 C 603.515625 399.726562 649.742188 414.75 588.839844 394.960938 " fill-opacity="1" fill-rule="nonzero"/></g><g clip-path="url(#40633630a0)"><path fill="#f78c2c" d="M 647.179688 121.285156 L 551.316406 253.234375 C 589.824219 284.679688 605.554688 334.980469 593.136719 381.832031 L 748.253906 432.238281 C 783.15625 315.328125 739.96875 192.316406 647.179688 121.285156 " fill-opacity="1" fill-rule="nonzero"/></g><path fill="#7ba98e" d="M 540.136719 245.117188 L 636.011719 113.15625 C 537.769531 45.109375 407.371094 45.074219 309.050781 113.148438 L 404.933594 245.109375 C 446.09375 218.464844 498.9375 218.441406 540.136719 245.117188 " fill-opacity="1" fill-rule="nonzero"/><g fill="#000000" fill-opacity="1"><g transform="translate(385.726337, 311.847366)"><g><path d="M 3.75 7.953125 C 3.113281 7.953125 2.519531 7.894531 1.96875 7.78125 C 1.425781 7.675781 0.957031 7.53125 0.5625 7.34375 L 1.0625 5.140625 L 1.375 5.046875 C 1.644531 5.179688 1.984375 5.296875 2.390625 5.390625 C 2.796875 5.484375 3.21875 5.53125 3.65625 5.53125 C 4.414062 5.53125 5.039062 5.425781 5.53125 5.21875 C 6.03125 5.019531 6.457031 4.6875 6.8125 4.21875 C 7.175781 3.75 7.507812 3.101562 7.8125 2.28125 L 8.46875 0.4375 L 0.953125 -18.734375 L 3.9375 -18.734375 L 9.828125 -3.453125 L 10.15625 -3.453125 L 15.859375 -18.734375 L 18.703125 -18.734375 L 10.328125 2.9375 C 9.847656 4.132812 9.3125 5.097656 8.71875 5.828125 C 8.132812 6.554688 7.441406 7.09375 6.640625 7.4375 C 5.835938 7.78125 4.875 7.953125 3.75 7.953125 Z M 3.75 7.953125 "/></g></g></g><g fill="#000000" fill-opacity="1"><g transform="translate(405.477602, 311.847366)"><g><path d="M 10.75 0.359375 C 8.976562 0.359375 7.4375 -0.015625 6.125 -0.765625 C 4.820312 -1.515625 3.816406 -2.613281 3.109375 -4.0625 C 2.410156 -5.519531 2.0625 -7.285156 2.0625 -9.359375 C 2.0625 -11.429688 2.410156 -13.195312 3.109375 -14.65625 C 3.816406 -16.113281 4.820312 -17.21875 6.125 -17.96875 C 7.4375 -18.71875 8.976562 -19.09375 10.75 -19.09375 C 12.519531 -19.09375 14.054688 -18.71875 15.359375 -17.96875 C 16.671875 -17.21875 17.679688 -16.113281 18.390625 -14.65625 C 19.097656 -13.195312 19.453125 -11.429688 19.453125 -9.359375 C 19.453125 -7.285156 19.097656 -5.519531 18.390625 -4.0625 C 17.679688 -2.613281 16.671875 -1.515625 15.359375 -0.765625 C 14.054688 -0.015625 12.519531 0.359375 10.75 0.359375 Z M 10.75 -2.125 C 12.613281 -2.125 14.039062 -2.710938 15.03125 -3.890625 C 16.03125 -5.066406 16.53125 -6.890625 16.53125 -9.359375 C 16.53125 -11.835938 16.03125 -13.664062 15.03125 -14.84375 C 14.039062 -16.019531 12.613281 -16.609375 10.75 -16.609375 C 8.882812 -16.609375 7.453125 -16.015625 6.453125 -14.828125 C 5.453125 -13.648438 4.953125 -11.828125 4.953125 -9.359375 C 4.953125 -6.890625 5.453125 -5.066406 6.453125 -3.890625 C 7.453125 -2.710938 8.882812 -2.125 10.75 -2.125 Z M 10.75 -2.125 "/></g></g></g><g fill="#000000" fill-opacity="1"><g transform="translate(426.978119, 311.847366)"><g><path d="M 9.25 0.359375 C 7.132812 0.359375 5.554688 -0.195312 4.515625 -1.3125 C 3.484375 -2.4375 2.96875 -4.082031 2.96875 -6.25 L 2.96875 -18.734375 L 5.734375 -18.734375 L 5.734375 -6.3125 C 5.734375 -3.476562 7.070312 -2.0625 9.75 -2.0625 C 11.445312 -2.0625 12.785156 -2.613281 13.765625 -3.71875 C 14.753906 -4.832031 15.25 -6.632812 15.25 -9.125 L 15.25 -18.734375 L 18.015625 -18.734375 L 18.015625 0 L 15.40625 0 L 15.40625 -2.9375 L 15.046875 -3.015625 C 14.398438 -1.878906 13.625 -1.03125 12.71875 -0.46875 C 11.820312 0.0820312 10.664062 0.359375 9.25 0.359375 Z M 9.25 0.359375 "/></g></g></g><g fill="#000000" fill-opacity="1"><g transform="translate(448.257857, 311.847366)"><g><path d="M 3.265625 0 L 3.265625 -18.734375 L 5.890625 -18.734375 L 5.890625 -15.796875 L 6.25 -15.703125 C 7.125 -17.835938 8.765625 -18.90625 11.171875 -18.90625 C 12.453125 -18.90625 13.410156 -18.671875 14.046875 -18.203125 L 13.328125 -15.859375 L 12.984375 -15.796875 C 12.285156 -16.148438 11.519531 -16.328125 10.6875 -16.328125 C 9.1875 -16.328125 8.035156 -15.765625 7.234375 -14.640625 C 6.429688 -13.515625 6.03125 -11.695312 6.03125 -9.1875 L 6.03125 0 Z M 3.265625 0 "/></g></g></g><g fill="#000000" fill-opacity="1"><g transform="translate(462.71852, 311.847366)"><g/></g></g><g fill="#000000" fill-opacity="1"><g transform="translate(471.244001, 311.847366)"><g/></g></g><g fill="#000000" fill-opacity="1"><g transform="translate(479.769303, 311.847366)"><g><path d="M 8.546875 0.359375 C 7.367188 0.359375 6.273438 0.203125 5.265625 -0.109375 C 4.265625 -0.421875 3.421875 -0.847656 2.734375 -1.390625 C 2.046875 -1.929688 1.5625 -2.546875 1.28125 -3.234375 L 2.90625 -4.921875 L 3.265625 -4.921875 C 3.867188 -3.992188 4.601562 -3.296875 5.46875 -2.828125 C 6.332031 -2.359375 7.359375 -2.125 8.546875 -2.125 C 9.921875 -2.125 10.96875 -2.390625 11.6875 -2.921875 C 12.40625 -3.460938 12.765625 -4.21875 12.765625 -5.1875 C 12.765625 -5.914062 12.546875 -6.519531 12.109375 -7 C 11.679688 -7.488281 10.976562 -7.847656 10 -8.078125 L 6.84375 -8.859375 C 5.15625 -9.265625 3.921875 -9.910156 3.140625 -10.796875 C 2.367188 -11.679688 1.984375 -12.773438 1.984375 -14.078125 C 1.984375 -15.097656 2.242188 -15.984375 2.765625 -16.734375 C 3.285156 -17.484375 4.035156 -18.0625 5.015625 -18.46875 C 5.992188 -18.882812 7.160156 -19.09375 8.515625 -19.09375 C 10.234375 -19.09375 11.585938 -18.847656 12.578125 -18.359375 C 13.566406 -17.878906 14.335938 -17.210938 14.890625 -16.359375 L 13.328125 -14.828125 L 12.984375 -14.828125 C 12.390625 -15.515625 11.738281 -16.007812 11.03125 -16.3125 C 10.320312 -16.625 9.484375 -16.78125 8.515625 -16.78125 C 7.273438 -16.78125 6.328125 -16.554688 5.671875 -16.109375 C 5.015625 -15.671875 4.6875 -15.035156 4.6875 -14.203125 C 4.6875 -13.441406 4.914062 -12.828125 5.375 -12.359375 C 5.84375 -11.898438 6.65625 -11.53125 7.8125 -11.25 L 10.921875 -10.5 C 12.546875 -10.113281 13.722656 -9.472656 14.453125 -8.578125 C 15.179688 -7.679688 15.546875 -6.5625 15.546875 -5.21875 C 15.546875 -4.113281 15.285156 -3.140625 14.765625 -2.296875 C 14.242188 -1.460938 13.453125 -0.8125 12.390625 -0.34375 C 11.335938 0.125 10.054688 0.359375 8.546875 0.359375 Z M 8.546875 0.359375 "/></g></g></g><g fill="#000000" fill-opacity="1"><g transform="translate(497.091995, 311.847366)"><g><path d="M 10.75 0.359375 C 9.09375 0.359375 7.609375 -0.015625 6.296875 -0.765625 C 4.984375 -1.523438 3.945312 -2.632812 3.1875 -4.09375 C 2.4375 -5.5625 2.0625 -7.316406 2.0625 -9.359375 C 2.0625 -11.410156 2.4375 -13.164062 3.1875 -14.625 C 3.945312 -16.09375 4.984375 -17.203125 6.296875 -17.953125 C 7.609375 -18.710938 9.09375 -19.09375 10.75 -19.09375 C 12.726562 -19.09375 14.300781 -18.71875 15.46875 -17.96875 C 16.644531 -17.21875 17.492188 -16.222656 18.015625 -14.984375 L 16.140625 -13.625 L 15.796875 -13.625 C 15.285156 -14.65625 14.628906 -15.410156 13.828125 -15.890625 C 13.035156 -16.367188 12.007812 -16.609375 10.75 -16.609375 C 9.59375 -16.609375 8.578125 -16.335938 7.703125 -15.796875 C 6.835938 -15.253906 6.160156 -14.4375 5.671875 -13.34375 C 5.191406 -12.257812 4.953125 -10.929688 4.953125 -9.359375 C 4.953125 -7.796875 5.195312 -6.472656 5.6875 -5.390625 C 6.175781 -4.304688 6.851562 -3.488281 7.71875 -2.9375 C 8.582031 -2.394531 9.59375 -2.125 10.75 -2.125 C 12.050781 -2.125 13.128906 -2.414062 13.984375 -3 C 14.835938 -3.59375 15.507812 -4.523438 16 -5.796875 L 16.359375 -5.796875 L 18.171875 -4.71875 C 17.679688 -3.144531 16.8125 -1.90625 15.5625 -1 C 14.3125 -0.09375 12.707031 0.359375 10.75 0.359375 Z M 10.75 0.359375 "/></g></g></g><g fill="#000000" fill-opacity="1"><g transform="translate(516.401702, 311.847366)"><g><path d="M 10.75 0.359375 C 8.976562 0.359375 7.4375 -0.015625 6.125 -0.765625 C 4.820312 -1.515625 3.816406 -2.613281 3.109375 -4.0625 C 2.410156 -5.519531 2.0625 -7.285156 2.0625 -9.359375 C 2.0625 -11.429688 2.410156 -13.195312 3.109375 -14.65625 C 3.816406 -16.113281 4.820312 -17.21875 6.125 -17.96875 C 7.4375 -18.71875 8.976562 -19.09375 10.75 -19.09375 C 12.519531 -19.09375 14.054688 -18.71875 15.359375 -17.96875 C 16.671875 -17.21875 17.679688 -16.113281 18.390625 -14.65625 C 19.097656 -13.195312 19.453125 -11.429688 19.453125 -9.359375 C 19.453125 -7.285156 19.097656 -5.519531 18.390625 -4.0625 C 17.679688 -2.613281 16.671875 -1.515625 15.359375 -0.765625 C 14.054688 -0.015625 12.519531 0.359375 10.75 0.359375 Z M 10.75 -2.125 C 12.613281 -2.125 14.039062 -2.710938 15.03125 -3.890625 C 16.03125 -5.066406 16.53125 -6.890625 16.53125 -9.359375 C 16.53125 -11.835938 16.03125 -13.664062 15.03125 -14.84375 C 14.039062 -16.019531 12.613281 -16.609375 10.75 -16.609375 C 8.882812 -16.609375 7.453125 -16.015625 6.453125 -14.828125 C 5.453125 -13.648438 4.953125 -11.828125 4.953125 -9.359375 C 4.953125 -6.890625 5.453125 -5.066406 6.453125 -3.890625 C 7.453125 -2.710938 8.882812 -2.125 10.75 -2.125 Z M 10.75 -2.125 "/></g></g></g><g fill="#000000" fill-opacity="1"><g transform="translate(537.902219, 311.847366)"><g><path d="M 3.265625 0 L 3.265625 -18.734375 L 5.890625 -18.734375 L 5.890625 -15.796875 L 6.25 -15.703125 C 7.125 -17.835938 8.765625 -18.90625 11.171875 -18.90625 C 12.453125 -18.90625 13.410156 -18.671875 14.046875 -18.203125 L 13.328125 -15.859375 L 12.984375 -15.796875 C 12.285156 -16.148438 11.519531 -16.328125 10.6875 -16.328125 C 9.1875 -16.328125 8.035156 -15.765625 7.234375 -14.640625 C 6.429688 -13.515625 6.03125 -11.695312 6.03125 -9.1875 L 6.03125 0 Z M 3.265625 0 "/></g></g></g><g fill="#000000" fill-opacity="1"><g transform="translate(552.371762, 311.847366)"><g><path d="M 17.84375 -8.734375 L 4.96875 -8.734375 C 5.050781 -6.453125 5.597656 -4.78125 6.609375 -3.71875 C 7.628906 -2.65625 9.019531 -2.125 10.78125 -2.125 C 12.113281 -2.125 13.1875 -2.359375 14 -2.828125 C 14.820312 -3.304688 15.46875 -4.054688 15.9375 -5.078125 L 16.28125 -5.078125 L 18.09375 -4.015625 C 17.539062 -2.648438 16.664062 -1.578125 15.46875 -0.796875 C 14.28125 -0.0234375 12.71875 0.359375 10.78125 0.359375 C 8.96875 0.359375 7.410156 0.00390625 6.109375 -0.703125 C 4.804688 -1.421875 3.804688 -2.503906 3.109375 -3.953125 C 2.410156 -5.398438 2.0625 -7.203125 2.0625 -9.359375 C 2.0625 -11.484375 2.429688 -13.273438 3.171875 -14.734375 C 3.910156 -16.203125 4.921875 -17.296875 6.203125 -18.015625 C 7.492188 -18.734375 8.960938 -19.09375 10.609375 -19.09375 C 13.015625 -19.09375 14.890625 -18.414062 16.234375 -17.0625 C 17.578125 -15.707031 18.257812 -13.695312 18.28125 -11.03125 C 18.28125 -9.988281 18.253906 -9.289062 18.203125 -8.9375 Z M 15.546875 -11.03125 C 15.492188 -13.03125 15.046875 -14.484375 14.203125 -15.390625 C 13.367188 -16.296875 12.171875 -16.75 10.609375 -16.75 C 8.972656 -16.75 7.6875 -16.289062 6.75 -15.375 C 5.8125 -14.46875 5.242188 -13.019531 5.046875 -11.03125 Z M 15.546875 -11.03125 "/></g></g></g><g fill="#000000" fill-opacity="1"><g transform="translate(416.757585, 391.347361)"><g><path d="M 2.734375 -2.09375 C 2.734375 -4.601562 3.007812 -6.625 3.5625 -8.15625 C 4.113281 -9.695312 5.050781 -11.128906 6.375 -12.453125 C 7.707031 -13.785156 9.828125 -15.507812 12.734375 -17.625 L 17.75 -21.265625 C 19.59375 -22.617188 21.097656 -23.863281 22.265625 -25 C 23.429688 -26.144531 24.347656 -27.382812 25.015625 -28.71875 C 25.691406 -30.0625 26.03125 -31.566406 26.03125 -33.234375 C 26.03125 -35.929688 25.3125 -37.960938 23.875 -39.328125 C 22.445312 -40.703125 20.207031 -41.390625 17.15625 -41.390625 C 14.75 -41.390625 12.609375 -40.828125 10.734375 -39.703125 C 8.867188 -38.585938 7.378906 -37 6.265625 -34.9375 L 5.546875 -34.8125 L 2.328125 -38.1875 C 3.867188 -40.675781 5.890625 -42.628906 8.390625 -44.046875 C 10.890625 -45.472656 13.8125 -46.1875 17.15625 -46.1875 C 20.394531 -46.1875 23.082031 -45.632812 25.21875 -44.53125 C 27.363281 -43.4375 28.941406 -41.914062 29.953125 -39.96875 C 30.972656 -38.03125 31.484375 -35.785156 31.484375 -33.234375 C 31.484375 -31.191406 31.054688 -29.289062 30.203125 -27.53125 C 29.359375 -25.769531 28.15625 -24.109375 26.59375 -22.546875 C 25.039062 -20.992188 23.085938 -19.351562 20.734375 -17.625 L 15.671875 -13.921875 C 13.773438 -12.523438 12.316406 -11.335938 11.296875 -10.359375 C 10.285156 -9.390625 9.546875 -8.441406 9.078125 -7.515625 C 8.609375 -6.597656 8.375 -5.566406 8.375 -4.421875 L 31.484375 -4.421875 L 31.484375 0 L 2.734375 0 Z M 2.734375 -2.09375 "/></g></g></g><g fill="#000000" fill-opacity="1"><g transform="translate(451.758239, 391.347361)"><g><path d="M 22.390625 0.65625 C 19.046875 0.65625 16.046875 -0.144531 13.390625 -1.75 C 10.734375 -3.363281 8.613281 -5.921875 7.03125 -9.421875 C 5.457031 -12.921875 4.671875 -17.367188 4.671875 -22.765625 C 4.671875 -28.160156 5.457031 -32.609375 7.03125 -36.109375 C 8.613281 -39.609375 10.734375 -42.160156 13.390625 -43.765625 C 16.046875 -45.378906 19.046875 -46.1875 22.390625 -46.1875 C 25.734375 -46.1875 28.734375 -45.378906 31.390625 -43.765625 C 34.046875 -42.160156 36.15625 -39.609375 37.71875 -36.109375 C 39.289062 -32.609375 40.078125 -28.160156 40.078125 -22.765625 C 40.078125 -17.367188 39.289062 -12.921875 37.71875 -9.421875 C 36.15625 -5.921875 34.046875 -3.363281 31.390625 -1.75 C 28.734375 -0.144531 25.734375 0.65625 22.390625 0.65625 Z M 22.390625 -4.296875 C 26.359375 -4.296875 29.363281 -5.722656 31.40625 -8.578125 C 33.445312 -11.429688 34.46875 -16.160156 34.46875 -22.765625 C 34.46875 -29.367188 33.445312 -34.097656 31.40625 -36.953125 C 29.363281 -39.804688 26.359375 -41.234375 22.390625 -41.234375 C 19.773438 -41.234375 17.570312 -40.628906 15.78125 -39.421875 C 14 -38.222656 12.632812 -36.265625 11.6875 -33.546875 C 10.75 -30.828125 10.28125 -27.234375 10.28125 -22.765625 C 10.28125 -18.296875 10.75 -14.703125 11.6875 -11.984375 C 12.632812 -9.265625 14 -7.300781 15.78125 -6.09375 C 17.570312 -4.894531 19.773438 -4.296875 22.390625 -4.296875 Z M 22.390625 -4.296875 "/></g></g></g><g fill="#000000" fill-opacity="1"><g transform="translate(496.536656, 391.347361)"><g><path d="M 22.390625 0.65625 C 19.046875 0.65625 16.046875 -0.144531 13.390625 -1.75 C 10.734375 -3.363281 8.613281 -5.921875 7.03125 -9.421875 C 5.457031 -12.921875 4.671875 -17.367188 4.671875 -22.765625 C 4.671875 -28.160156 5.457031 -32.609375 7.03125 -36.109375 C 8.613281 -39.609375 10.734375 -42.160156 13.390625 -43.765625 C 16.046875 -45.378906 19.046875 -46.1875 22.390625 -46.1875 C 25.734375 -46.1875 28.734375 -45.378906 31.390625 -43.765625 C 34.046875 -42.160156 36.15625 -39.609375 37.71875 -36.109375 C 39.289062 -32.609375 40.078125 -28.160156 40.078125 -22.765625 C 40.078125 -17.367188 39.289062 -12.921875 37.71875 -9.421875 C 36.15625 -5.921875 34.046875 -3.363281 31.390625 -1.75 C 28.734375 -0.144531 25.734375 0.65625 22.390625 0.65625 Z M 22.390625 -4.296875 C 26.359375 -4.296875 29.363281 -5.722656 31.40625 -8.578125 C 33.445312 -11.429688 34.46875 -16.160156 34.46875 -22.765625 C 34.46875 -29.367188 33.445312 -34.097656 31.40625 -36.953125 C 29.363281 -39.804688 26.359375 -41.234375 22.390625 -41.234375 C 19.773438 -41.234375 17.570312 -40.628906 15.78125 -39.421875 C 14 -38.222656 12.632812 -36.265625 11.6875 -33.546875 C 10.75 -30.828125 10.28125 -27.234375 10.28125 -22.765625 C 10.28125 -18.296875 10.75 -14.703125 11.6875 -11.984375 C 12.632812 -9.265625 14 -7.300781 15.78125 -6.09375 C 17.570312 -4.894531 19.773438 -4.296875 22.390625 -4.296875 Z M 22.390625 -4.296875 "/></g></g></g><g fill="#fffcef" fill-opacity="1"><g transform="translate(435.718935, 163.027862)"><g><path d="M 4.984375 -8.75 L 4.984375 -1.796875 L 14.453125 -1.796875 L 14.453125 0 L 2.8125 0 L 2.8125 -18.5625 L 14.25 -18.5625 L 14.25 -16.765625 L 4.984375 -16.765625 L 4.984375 -10.546875 L 13.15625 -10.546875 L 13.15625 -8.75 Z M 4.984375 -8.75 "/></g></g></g><g fill="#fffcef" fill-opacity="1"><g transform="translate(451.392933, 163.027862)"><g><path d="M 2.4375 0 L 2.4375 -14 L 4.40625 -14 L 4.40625 -11.8125 L 4.671875 -11.75 C 5.140625 -12.5625 5.734375 -13.179688 6.453125 -13.609375 C 7.179688 -14.046875 8.066406 -14.265625 9.109375 -14.265625 C 10.785156 -14.265625 12.003906 -13.832031 12.765625 -12.96875 C 13.523438 -12.113281 13.90625 -10.796875 13.90625 -9.015625 L 13.90625 0 L 11.828125 0 L 11.828125 -8.96875 C 11.828125 -9.8125 11.71875 -10.488281 11.5 -11 C 11.289062 -11.507812 10.957031 -11.878906 10.5 -12.109375 C 10.050781 -12.347656 9.457031 -12.46875 8.71875 -12.46875 C 7.457031 -12.46875 6.4375 -12.050781 5.65625 -11.21875 C 4.882812 -10.382812 4.5 -9.039062 4.5 -7.1875 L 4.5 0 Z M 2.4375 0 "/></g></g></g><g fill="#fffcef" fill-opacity="1"><g transform="translate(467.511134, 163.027862)"><g><path d="M 13.34375 -6.53125 L 3.71875 -6.53125 C 3.78125 -4.820312 4.1875 -3.570312 4.9375 -2.78125 C 5.695312 -1.988281 6.738281 -1.59375 8.0625 -1.59375 C 9.0625 -1.59375 9.863281 -1.769531 10.46875 -2.125 C 11.082031 -2.476562 11.5625 -3.035156 11.90625 -3.796875 L 12.171875 -3.796875 L 13.515625 -3 C 13.109375 -1.976562 12.457031 -1.175781 11.5625 -0.59375 C 10.675781 -0.0195312 9.507812 0.265625 8.0625 0.265625 C 6.707031 0.265625 5.539062 0 4.5625 -0.53125 C 3.59375 -1.0625 2.84375 -1.867188 2.3125 -2.953125 C 1.789062 -4.035156 1.53125 -5.382812 1.53125 -7 C 1.53125 -8.582031 1.804688 -9.921875 2.359375 -11.015625 C 2.921875 -12.109375 3.679688 -12.921875 4.640625 -13.453125 C 5.597656 -13.992188 6.695312 -14.265625 7.9375 -14.265625 C 9.726562 -14.265625 11.125 -13.757812 12.125 -12.75 C 13.132812 -11.738281 13.644531 -10.238281 13.65625 -8.25 C 13.65625 -7.46875 13.640625 -6.941406 13.609375 -6.671875 Z M 11.609375 -8.25 C 11.578125 -9.738281 11.25 -10.820312 10.625 -11.5 C 10 -12.175781 9.101562 -12.515625 7.9375 -12.515625 C 6.707031 -12.515625 5.742188 -12.171875 5.046875 -11.484375 C 4.347656 -10.804688 3.921875 -9.726562 3.765625 -8.25 Z M 11.609375 -8.25 "/></g></g></g><g fill="#fffcef" fill-opacity="1"><g transform="translate(482.436335, 163.027862)"><g><path d="M 2.4375 0 L 2.4375 -14 L 4.40625 -14 L 4.40625 -11.8125 L 4.671875 -11.75 C 5.328125 -13.332031 6.554688 -14.125 8.359375 -14.125 C 9.304688 -14.125 10.019531 -13.953125 10.5 -13.609375 L 9.96875 -11.859375 L 9.71875 -11.8125 C 9.1875 -12.070312 8.609375 -12.203125 7.984375 -12.203125 C 6.867188 -12.203125 6.007812 -11.78125 5.40625 -10.9375 C 4.800781 -10.101562 4.5 -8.75 4.5 -6.875 L 4.5 0 Z M 2.4375 0 "/></g></g></g><g fill="#fffcef" fill-opacity="1"><g transform="translate(493.249491, 163.027862)"><g><path d="M 7.21875 5.9375 C 5 5.9375 3.378906 5.566406 2.359375 4.828125 C 1.347656 4.097656 0.84375 3.125 0.84375 1.90625 C 0.84375 1.113281 1.078125 0.484375 1.546875 0.015625 C 2.023438 -0.441406 2.71875 -0.773438 3.625 -0.984375 L 3.625 -1.25 C 3.195312 -1.488281 2.875 -1.773438 2.65625 -2.109375 C 2.445312 -2.441406 2.34375 -2.832031 2.34375 -3.28125 C 2.34375 -3.820312 2.507812 -4.257812 2.84375 -4.59375 C 3.1875 -4.9375 3.695312 -5.203125 4.375 -5.390625 L 4.375 -5.65625 C 2.851562 -6.457031 2.09375 -7.765625 2.09375 -9.578125 C 2.09375 -10.484375 2.300781 -11.289062 2.71875 -12 C 3.132812 -12.71875 3.726562 -13.273438 4.5 -13.671875 C 5.269531 -14.066406 6.164062 -14.265625 7.1875 -14.265625 C 8.363281 -14.265625 9.34375 -14.007812 10.125 -13.5 C 10.425781 -13.820312 10.648438 -14.171875 10.796875 -14.546875 C 10.941406 -14.929688 11.035156 -15.359375 11.078125 -15.828125 L 11.34375 -16 L 13.046875 -15.59375 C 12.960938 -14.882812 12.75 -14.28125 12.40625 -13.78125 C 12.0625 -13.289062 11.578125 -12.882812 10.953125 -12.5625 L 10.953125 -12.296875 C 11.398438 -11.941406 11.734375 -11.523438 11.953125 -11.046875 C 12.171875 -10.566406 12.28125 -10.007812 12.28125 -9.375 C 12.28125 -8.5 12.066406 -7.707031 11.640625 -7 C 11.210938 -6.300781 10.613281 -5.75 9.84375 -5.34375 C 9.082031 -4.945312 8.195312 -4.75 7.1875 -4.75 C 7.070312 -4.75 6.859375 -4.757812 6.546875 -4.78125 C 6.210938 -4.789062 5.960938 -4.796875 5.796875 -4.796875 C 5.359375 -4.796875 5.007812 -4.679688 4.75 -4.453125 C 4.488281 -4.222656 4.359375 -3.929688 4.359375 -3.578125 C 4.359375 -3.140625 4.5 -2.816406 4.78125 -2.609375 C 5.0625 -2.398438 5.53125 -2.285156 6.1875 -2.265625 L 9.5 -2.140625 C 10.925781 -2.085938 11.984375 -1.753906 12.671875 -1.140625 C 13.367188 -0.535156 13.71875 0.328125 13.71875 1.453125 C 13.71875 2.296875 13.488281 3.050781 13.03125 3.71875 C 12.582031 4.394531 11.875 4.929688 10.90625 5.328125 C 9.9375 5.734375 8.707031 5.9375 7.21875 5.9375 Z M 7.1875 -6.53125 C 8.175781 -6.53125 8.941406 -6.785156 9.484375 -7.296875 C 10.023438 -7.816406 10.296875 -8.539062 10.296875 -9.46875 C 10.296875 -10.4375 10.023438 -11.179688 9.484375 -11.703125 C 8.953125 -12.234375 8.1875 -12.5 7.1875 -12.5 C 6.1875 -12.5 5.421875 -12.238281 4.890625 -11.71875 C 4.367188 -11.195312 4.109375 -10.445312 4.109375 -9.46875 C 4.109375 -8.53125 4.367188 -7.804688 4.890625 -7.296875 C 5.421875 -6.785156 6.1875 -6.53125 7.1875 -6.53125 Z M 7.21875 4.171875 C 8.25 4.171875 9.09375 4.054688 9.75 3.828125 C 10.40625 3.597656 10.875 3.289062 11.15625 2.90625 C 11.445312 2.53125 11.59375 2.113281 11.59375 1.65625 C 11.59375 1.238281 11.515625 0.898438 11.359375 0.640625 C 11.203125 0.390625 10.945312 0.203125 10.59375 0.078125 C 10.25 -0.046875 9.773438 -0.128906 9.171875 -0.171875 L 6.046875 -0.3125 L 5.59375 -0.3125 C 3.84375 -0.289062 2.96875 0.390625 2.96875 1.734375 C 2.96875 3.359375 4.382812 4.171875 7.21875 4.171875 Z M 7.21875 4.171875 "/></g></g></g><g fill="#fffcef" fill-opacity="1"><g transform="translate(507.590882, 163.027862)"><g><path d="M 2.8125 5.9375 C 2.332031 5.9375 1.882812 5.894531 1.46875 5.8125 C 1.0625 5.738281 0.710938 5.628906 0.421875 5.484375 L 0.796875 3.84375 L 1.03125 3.765625 C 1.226562 3.867188 1.476562 3.957031 1.78125 4.03125 C 2.09375 4.101562 2.410156 4.140625 2.734375 4.140625 C 3.296875 4.140625 3.765625 4.0625 4.140625 3.90625 C 4.515625 3.757812 4.832031 3.507812 5.09375 3.15625 C 5.363281 2.800781 5.613281 2.316406 5.84375 1.703125 L 6.328125 0.328125 L 0.71875 -14 L 2.953125 -14 L 7.34375 -2.578125 L 7.59375 -2.578125 L 11.859375 -14 L 13.984375 -14 L 7.71875 2.203125 C 7.363281 3.097656 6.960938 3.816406 6.515625 4.359375 C 6.078125 4.910156 5.554688 5.3125 4.953125 5.5625 C 4.359375 5.8125 3.644531 5.9375 2.8125 5.9375 Z M 2.8125 5.9375 "/></g></g></g><g fill="#fffcef" fill-opacity="1"><g transform="translate(428.793154, 199.02786)"><g><path d="M 6.921875 0.265625 C 5.335938 0.265625 4.15625 -0.148438 3.375 -0.984375 C 2.601562 -1.828125 2.21875 -3.054688 2.21875 -4.671875 L 2.21875 -14 L 4.296875 -14 L 4.296875 -4.71875 C 4.296875 -2.59375 5.289062 -1.53125 7.28125 -1.53125 C 8.550781 -1.53125 9.554688 -1.945312 10.296875 -2.78125 C 11.035156 -3.613281 11.40625 -4.957031 11.40625 -6.8125 L 11.40625 -14 L 13.46875 -14 L 13.46875 0 L 11.515625 0 L 11.515625 -2.203125 L 11.25 -2.265625 C 10.769531 -1.410156 10.191406 -0.773438 9.515625 -0.359375 C 8.835938 0.0546875 7.972656 0.265625 6.921875 0.265625 Z M 6.921875 0.265625 "/></g></g></g><g fill="#fffcef" fill-opacity="1"><g transform="translate(444.6956, 199.02786)"><g><path d="M 6.390625 0.265625 C 5.503906 0.265625 4.6875 0.148438 3.9375 -0.078125 C 3.1875 -0.316406 2.550781 -0.640625 2.03125 -1.046875 C 1.519531 -1.453125 1.160156 -1.90625 0.953125 -2.40625 L 2.171875 -3.6875 L 2.4375 -3.6875 C 2.894531 -2.988281 3.441406 -2.460938 4.078125 -2.109375 C 4.722656 -1.765625 5.492188 -1.59375 6.390625 -1.59375 C 7.421875 -1.59375 8.203125 -1.789062 8.734375 -2.1875 C 9.273438 -2.59375 9.546875 -3.15625 9.546875 -3.875 C 9.546875 -4.425781 9.378906 -4.878906 9.046875 -5.234375 C 8.722656 -5.597656 8.203125 -5.867188 7.484375 -6.046875 L 5.109375 -6.625 C 3.847656 -6.925781 2.925781 -7.40625 2.34375 -8.0625 C 1.769531 -8.726562 1.484375 -9.550781 1.484375 -10.53125 C 1.484375 -11.289062 1.675781 -11.953125 2.0625 -12.515625 C 2.457031 -13.078125 3.019531 -13.507812 3.75 -13.8125 C 4.476562 -14.113281 5.347656 -14.265625 6.359375 -14.265625 C 7.648438 -14.265625 8.664062 -14.082031 9.40625 -13.71875 C 10.144531 -13.363281 10.722656 -12.863281 11.140625 -12.21875 L 9.96875 -11.078125 L 9.71875 -11.078125 C 9.269531 -11.597656 8.78125 -11.972656 8.25 -12.203125 C 7.71875 -12.429688 7.085938 -12.546875 6.359375 -12.546875 C 5.441406 -12.546875 4.734375 -12.378906 4.234375 -12.046875 C 3.742188 -11.710938 3.5 -11.234375 3.5 -10.609375 C 3.5 -10.046875 3.671875 -9.585938 4.015625 -9.234375 C 4.367188 -8.890625 4.976562 -8.613281 5.84375 -8.40625 L 8.15625 -7.84375 C 9.375 -7.5625 10.253906 -7.082031 10.796875 -6.40625 C 11.335938 -5.738281 11.609375 -4.898438 11.609375 -3.890625 C 11.609375 -3.078125 11.414062 -2.351562 11.03125 -1.71875 C 10.644531 -1.09375 10.054688 -0.601562 9.265625 -0.25 C 8.484375 0.09375 7.523438 0.265625 6.390625 0.265625 Z M 6.390625 0.265625 "/></g></g></g><g fill="#fffcef" fill-opacity="1"><g transform="translate(457.640927, 199.02786)"><g><path d="M 13.34375 -6.53125 L 3.71875 -6.53125 C 3.78125 -4.820312 4.1875 -3.570312 4.9375 -2.78125 C 5.695312 -1.988281 6.738281 -1.59375 8.0625 -1.59375 C 9.0625 -1.59375 9.863281 -1.769531 10.46875 -2.125 C 11.082031 -2.476562 11.5625 -3.035156 11.90625 -3.796875 L 12.171875 -3.796875 L 13.515625 -3 C 13.109375 -1.976562 12.457031 -1.175781 11.5625 -0.59375 C 10.675781 -0.0195312 9.507812 0.265625 8.0625 0.265625 C 6.707031 0.265625 5.539062 0 4.5625 -0.53125 C 3.59375 -1.0625 2.84375 -1.867188 2.3125 -2.953125 C 1.789062 -4.035156 1.53125 -5.382812 1.53125 -7 C 1.53125 -8.582031 1.804688 -9.921875 2.359375 -11.015625 C 2.921875 -12.109375 3.679688 -12.921875 4.640625 -13.453125 C 5.597656 -13.992188 6.695312 -14.265625 7.9375 -14.265625 C 9.726562 -14.265625 11.125 -13.757812 12.125 -12.75 C 13.132812 -11.738281 13.644531 -10.238281 13.65625 -8.25 C 13.65625 -7.46875 13.640625 -6.941406 13.609375 -6.671875 Z M 11.609375 -8.25 C 11.578125 -9.738281 11.25 -10.820312 10.625 -11.5 C 10 -12.175781 9.101562 -12.515625 7.9375 -12.515625 C 6.707031 -12.515625 5.742188 -12.171875 5.046875 -11.484375 C 4.347656 -10.804688 3.921875 -9.726562 3.765625 -8.25 Z M 11.609375 -8.25 "/></g></g></g><g fill="#fffcef" fill-opacity="1"><g transform="translate(472.566127, 199.02786)"><g><path d="M 6.390625 0.265625 C 5.503906 0.265625 4.6875 0.148438 3.9375 -0.078125 C 3.1875 -0.316406 2.550781 -0.640625 2.03125 -1.046875 C 1.519531 -1.453125 1.160156 -1.90625 0.953125 -2.40625 L 2.171875 -3.6875 L 2.4375 -3.6875 C 2.894531 -2.988281 3.441406 -2.460938 4.078125 -2.109375 C 4.722656 -1.765625 5.492188 -1.59375 6.390625 -1.59375 C 7.421875 -1.59375 8.203125 -1.789062 8.734375 -2.1875 C 9.273438 -2.59375 9.546875 -3.15625 9.546875 -3.875 C 9.546875 -4.425781 9.378906 -4.878906 9.046875 -5.234375 C 8.722656 -5.597656 8.203125 -5.867188 7.484375 -6.046875 L 5.109375 -6.625 C 3.847656 -6.925781 2.925781 -7.40625 2.34375 -8.0625 C 1.769531 -8.726562 1.484375 -9.550781 1.484375 -10.53125 C 1.484375 -11.289062 1.675781 -11.953125 2.0625 -12.515625 C 2.457031 -13.078125 3.019531 -13.507812 3.75 -13.8125 C 4.476562 -14.113281 5.347656 -14.265625 6.359375 -14.265625 C 7.648438 -14.265625 8.664062 -14.082031 9.40625 -13.71875 C 10.144531 -13.363281 10.722656 -12.863281 11.140625 -12.21875 L 9.96875 -11.078125 L 9.71875 -11.078125 C 9.269531 -11.597656 8.78125 -11.972656 8.25 -12.203125 C 7.71875 -12.429688 7.085938 -12.546875 6.359375 -12.546875 C 5.441406 -12.546875 4.734375 -12.378906 4.234375 -12.046875 C 3.742188 -11.710938 3.5 -11.234375 3.5 -10.609375 C 3.5 -10.046875 3.671875 -9.585938 4.015625 -9.234375 C 4.367188 -8.890625 4.976562 -8.613281 5.84375 -8.40625 L 8.15625 -7.84375 C 9.375 -7.5625 10.253906 -7.082031 10.796875 -6.40625 C 11.335938 -5.738281 11.609375 -4.898438 11.609375 -3.890625 C 11.609375 -3.078125 11.414062 -2.351562 11.03125 -1.71875 C 10.644531 -1.09375 10.054688 -0.601562 9.265625 -0.25 C 8.484375 0.09375 7.523438 0.265625 6.390625 0.265625 Z M 6.390625 0.265625 "/></g></g></g><g fill="#fffcef" fill-opacity="1"><g transform="translate(485.511454, 199.02786)"><g><path d="M 5.78125 0.265625 C 4.394531 0.265625 3.316406 -0.09375 2.546875 -0.8125 C 1.773438 -1.53125 1.390625 -2.554688 1.390625 -3.890625 C 1.390625 -4.722656 1.554688 -5.425781 1.890625 -6 C 2.234375 -6.570312 2.765625 -7.035156 3.484375 -7.390625 C 4.210938 -7.753906 5.15625 -8.035156 6.3125 -8.234375 C 7.320312 -8.398438 8.09375 -8.585938 8.625 -8.796875 C 9.15625 -9.003906 9.507812 -9.238281 9.6875 -9.5 C 9.875 -9.769531 9.96875 -10.101562 9.96875 -10.5 C 9.96875 -11.132812 9.75 -11.617188 9.3125 -11.953125 C 8.875 -12.296875 8.175781 -12.46875 7.21875 -12.46875 C 6.3125 -12.46875 5.53125 -12.289062 4.875 -11.9375 C 4.226562 -11.582031 3.632812 -11.0625 3.09375 -10.375 L 2.84375 -10.375 L 1.828125 -11.8125 C 2.421875 -12.5625 3.171875 -13.15625 4.078125 -13.59375 C 4.992188 -14.039062 6.039062 -14.265625 7.21875 -14.265625 C 8.863281 -14.265625 10.078125 -13.898438 10.859375 -13.171875 C 11.640625 -12.453125 12.03125 -11.457031 12.03125 -10.1875 L 12.03125 -2.75 C 12.03125 -1.976562 12.363281 -1.59375 13.03125 -1.59375 C 13.25 -1.59375 13.457031 -1.628906 13.65625 -1.703125 L 13.84375 -1.65625 L 14.078125 -0.21875 C 13.921875 -0.113281 13.71875 -0.0351562 13.46875 0.015625 C 13.226562 0.078125 12.972656 0.109375 12.703125 0.109375 C 11.929688 0.109375 11.347656 -0.0625 10.953125 -0.40625 C 10.566406 -0.75 10.316406 -1.25 10.203125 -1.90625 L 9.9375 -1.9375 C 9.539062 -1.195312 9.003906 -0.644531 8.328125 -0.28125 C 7.648438 0.0820312 6.800781 0.265625 5.78125 0.265625 Z M 6.234375 -1.390625 C 7.015625 -1.390625 7.6875 -1.566406 8.25 -1.921875 C 8.820312 -2.285156 9.257812 -2.789062 9.5625 -3.4375 C 9.875 -4.09375 10.03125 -4.847656 10.03125 -5.703125 L 10.03125 -7.484375 L 9.78125 -7.53125 C 9.46875 -7.3125 9.085938 -7.125 8.640625 -6.96875 C 8.191406 -6.820312 7.566406 -6.691406 6.765625 -6.578125 C 5.953125 -6.460938 5.304688 -6.289062 4.828125 -6.0625 C 4.347656 -5.832031 4.003906 -5.539062 3.796875 -5.1875 C 3.597656 -4.84375 3.5 -4.410156 3.5 -3.890625 C 3.5 -3.078125 3.738281 -2.457031 4.21875 -2.03125 C 4.707031 -1.601562 5.378906 -1.390625 6.234375 -1.390625 Z M 6.234375 -1.390625 "/></g></g></g><g fill="#fffcef" fill-opacity="1"><g transform="translate(499.992453, 199.02786)"><g><path d="M 7.21875 5.9375 C 5 5.9375 3.378906 5.566406 2.359375 4.828125 C 1.347656 4.097656 0.84375 3.125 0.84375 1.90625 C 0.84375 1.113281 1.078125 0.484375 1.546875 0.015625 C 2.023438 -0.441406 2.71875 -0.773438 3.625 -0.984375 L 3.625 -1.25 C 3.195312 -1.488281 2.875 -1.773438 2.65625 -2.109375 C 2.445312 -2.441406 2.34375 -2.832031 2.34375 -3.28125 C 2.34375 -3.820312 2.507812 -4.257812 2.84375 -4.59375 C 3.1875 -4.9375 3.695312 -5.203125 4.375 -5.390625 L 4.375 -5.65625 C 2.851562 -6.457031 2.09375 -7.765625 2.09375 -9.578125 C 2.09375 -10.484375 2.300781 -11.289062 2.71875 -12 C 3.132812 -12.71875 3.726562 -13.273438 4.5 -13.671875 C 5.269531 -14.066406 6.164062 -14.265625 7.1875 -14.265625 C 8.363281 -14.265625 9.34375 -14.007812 10.125 -13.5 C 10.425781 -13.820312 10.648438 -14.171875 10.796875 -14.546875 C 10.941406 -14.929688 11.035156 -15.359375 11.078125 -15.828125 L 11.34375 -16 L 13.046875 -15.59375 C 12.960938 -14.882812 12.75 -14.28125 12.40625 -13.78125 C 12.0625 -13.289062 11.578125 -12.882812 10.953125 -12.5625 L 10.953125 -12.296875 C 11.398438 -11.941406 11.734375 -11.523438 11.953125 -11.046875 C 12.171875 -10.566406 12.28125 -10.007812 12.28125 -9.375 C 12.28125 -8.5 12.066406 -7.707031 11.640625 -7 C 11.210938 -6.300781 10.613281 -5.75 9.84375 -5.34375 C 9.082031 -4.945312 8.195312 -4.75 7.1875 -4.75 C 7.070312 -4.75 6.859375 -4.757812 6.546875 -4.78125 C 6.210938 -4.789062 5.960938 -4.796875 5.796875 -4.796875 C 5.359375 -4.796875 5.007812 -4.679688 4.75 -4.453125 C 4.488281 -4.222656 4.359375 -3.929688 4.359375 -3.578125 C 4.359375 -3.140625 4.5 -2.816406 4.78125 -2.609375 C 5.0625 -2.398438 5.53125 -2.285156 6.1875 -2.265625 L 9.5 -2.140625 C 10.925781 -2.085938 11.984375 -1.753906 12.671875 -1.140625 C 13.367188 -0.535156 13.71875 0.328125 13.71875 1.453125 C 13.71875 2.296875 13.488281 3.050781 13.03125 3.71875 C 12.582031 4.394531 11.875 4.929688 10.90625 5.328125 C 9.9375 5.734375 8.707031 5.9375 7.21875 5.9375 Z M 7.1875 -6.53125 C 8.175781 -6.53125 8.941406 -6.785156 9.484375 -7.296875 C 10.023438 -7.816406 10.296875 -8.539062 10.296875 -9.46875 C 10.296875 -10.4375 10.023438 -11.179688 9.484375 -11.703125 C 8.953125 -12.234375 8.1875 -12.5 7.1875 -12.5 C 6.1875 -12.5 5.421875 -12.238281 4.890625 -11.71875 C 4.367188 -11.195312 4.109375 -10.445312 4.109375 -9.46875 C 4.109375 -8.53125 4.367188 -7.804688 4.890625 -7.296875 C 5.421875 -6.785156 6.1875 -6.53125 7.1875 -6.53125 Z M 7.21875 4.171875 C 8.25 4.171875 9.09375 4.054688 9.75 3.828125 C 10.40625 3.597656 10.875 3.289062 11.15625 2.90625 C 11.445312 2.53125 11.59375 2.113281 11.59375 1.65625 C 11.59375 1.238281 11.515625 0.898438 11.359375 0.640625 C 11.203125 0.390625 10.945312 0.203125 10.59375 0.078125 C 10.25 -0.046875 9.773438 -0.128906 9.171875 -0.171875 L 6.046875 -0.3125 L 5.59375 -0.3125 C 3.84375 -0.289062 2.96875 0.390625 2.96875 1.734375 C 2.96875 3.359375 4.382812 4.171875 7.21875 4.171875 Z M 7.21875 4.171875 "/></g></g></g><g fill="#fffcef" fill-opacity="1"><g transform="translate(514.333844, 199.02786)"><g><path d="M 13.34375 -6.53125 L 3.71875 -6.53125 C 3.78125 -4.820312 4.1875 -3.570312 4.9375 -2.78125 C 5.695312 -1.988281 6.738281 -1.59375 8.0625 -1.59375 C 9.0625 -1.59375 9.863281 -1.769531 10.46875 -2.125 C 11.082031 -2.476562 11.5625 -3.035156 11.90625 -3.796875 L 12.171875 -3.796875 L 13.515625 -3 C 13.109375 -1.976562 12.457031 -1.175781 11.5625 -0.59375 C 10.675781 -0.0195312 9.507812 0.265625 8.0625 0.265625 C 6.707031 0.265625 5.539062 0 4.5625 -0.53125 C 3.59375 -1.0625 2.84375 -1.867188 2.3125 -2.953125 C 1.789062 -4.035156 1.53125 -5.382812 1.53125 -7 C 1.53125 -8.582031 1.804688 -9.921875 2.359375 -11.015625 C 2.921875 -12.109375 3.679688 -12.921875 4.640625 -13.453125 C 5.597656 -13.992188 6.695312 -14.265625 7.9375 -14.265625 C 9.726562 -14.265625 11.125 -13.757812 12.125 -12.75 C 13.132812 -11.738281 13.644531 -10.238281 13.65625 -8.25 C 13.65625 -7.46875 13.640625 -6.941406 13.609375 -6.671875 Z M 11.609375 -8.25 C 11.578125 -9.738281 11.25 -10.820312 10.625 -11.5 C 10 -12.175781 9.101562 -12.515625 7.9375 -12.515625 C 6.707031 -12.515625 5.742188 -12.171875 5.046875 -11.484375 C 4.347656 -10.804688 3.921875 -9.726562 3.765625 -8.25 Z M 11.609375 -8.25 "/></g></g></g><g fill="#fffcef" fill-opacity="1"><g transform="translate(642.932191, 281.122423)"><g><path d="M 8.109375 0 L 5.25 0 L 1 -18.5625 L 3.15625 -18.5625 L 6.65625 -3.21875 L 6.96875 -3.21875 L 11.140625 -18.5625 L 13.15625 -18.5625 L 17.3125 -3.21875 L 17.640625 -3.21875 L 21.140625 -18.5625 L 23.234375 -18.5625 L 19 0 L 16.125 0 L 12.25 -14.046875 L 11.984375 -14.046875 Z M 8.109375 0 "/></g></g></g><g fill="#fffcef" fill-opacity="1"><g transform="translate(667.160258, 281.122423)"><g><path d="M 5.78125 0.265625 C 4.394531 0.265625 3.316406 -0.09375 2.546875 -0.8125 C 1.773438 -1.53125 1.390625 -2.554688 1.390625 -3.890625 C 1.390625 -4.722656 1.554688 -5.425781 1.890625 -6 C 2.234375 -6.570312 2.765625 -7.035156 3.484375 -7.390625 C 4.210938 -7.753906 5.15625 -8.035156 6.3125 -8.234375 C 7.320312 -8.398438 8.09375 -8.585938 8.625 -8.796875 C 9.15625 -9.003906 9.507812 -9.238281 9.6875 -9.5 C 9.875 -9.769531 9.96875 -10.101562 9.96875 -10.5 C 9.96875 -11.132812 9.75 -11.617188 9.3125 -11.953125 C 8.875 -12.296875 8.175781 -12.46875 7.21875 -12.46875 C 6.3125 -12.46875 5.53125 -12.289062 4.875 -11.9375 C 4.226562 -11.582031 3.632812 -11.0625 3.09375 -10.375 L 2.84375 -10.375 L 1.828125 -11.8125 C 2.421875 -12.5625 3.171875 -13.15625 4.078125 -13.59375 C 4.992188 -14.039062 6.039062 -14.265625 7.21875 -14.265625 C 8.863281 -14.265625 10.078125 -13.898438 10.859375 -13.171875 C 11.640625 -12.453125 12.03125 -11.457031 12.03125 -10.1875 L 12.03125 -2.75 C 12.03125 -1.976562 12.363281 -1.59375 13.03125 -1.59375 C 13.25 -1.59375 13.457031 -1.628906 13.65625 -1.703125 L 13.84375 -1.65625 L 14.078125 -0.21875 C 13.921875 -0.113281 13.71875 -0.0351562 13.46875 0.015625 C 13.226562 0.078125 12.972656 0.109375 12.703125 0.109375 C 11.929688 0.109375 11.347656 -0.0625 10.953125 -0.40625 C 10.566406 -0.75 10.316406 -1.25 10.203125 -1.90625 L 9.9375 -1.9375 C 9.539062 -1.195312 9.003906 -0.644531 8.328125 -0.28125 C 7.648438 0.0820312 6.800781 0.265625 5.78125 0.265625 Z M 6.234375 -1.390625 C 7.015625 -1.390625 7.6875 -1.566406 8.25 -1.921875 C 8.820312 -2.285156 9.257812 -2.789062 9.5625 -3.4375 C 9.875 -4.09375 10.03125 -4.847656 10.03125 -5.703125 L 10.03125 -7.484375 L 9.78125 -7.53125 C 9.46875 -7.3125 9.085938 -7.125 8.640625 -6.96875 C 8.191406 -6.820312 7.566406 -6.691406 6.765625 -6.578125 C 5.953125 -6.460938 5.304688 -6.289062 4.828125 -6.0625 C 4.347656 -5.832031 4.003906 -5.539062 3.796875 -5.1875 C 3.597656 -4.84375 3.5 -4.410156 3.5 -3.890625 C 3.5 -3.078125 3.738281 -2.457031 4.21875 -2.03125 C 4.707031 -1.601562 5.378906 -1.390625 6.234375 -1.390625 Z M 6.234375 -1.390625 "/></g></g></g><g fill="#fffcef" fill-opacity="1"><g transform="translate(681.641257, 281.122423)"><g><path d="M 6.390625 0.265625 C 5.503906 0.265625 4.6875 0.148438 3.9375 -0.078125 C 3.1875 -0.316406 2.550781 -0.640625 2.03125 -1.046875 C 1.519531 -1.453125 1.160156 -1.90625 0.953125 -2.40625 L 2.171875 -3.6875 L 2.4375 -3.6875 C 2.894531 -2.988281 3.441406 -2.460938 4.078125 -2.109375 C 4.722656 -1.765625 5.492188 -1.59375 6.390625 -1.59375 C 7.421875 -1.59375 8.203125 -1.789062 8.734375 -2.1875 C 9.273438 -2.59375 9.546875 -3.15625 9.546875 -3.875 C 9.546875 -4.425781 9.378906 -4.878906 9.046875 -5.234375 C 8.722656 -5.597656 8.203125 -5.867188 7.484375 -6.046875 L 5.109375 -6.625 C 3.847656 -6.925781 2.925781 -7.40625 2.34375 -8.0625 C 1.769531 -8.726562 1.484375 -9.550781 1.484375 -10.53125 C 1.484375 -11.289062 1.675781 -11.953125 2.0625 -12.515625 C 2.457031 -13.078125 3.019531 -13.507812 3.75 -13.8125 C 4.476562 -14.113281 5.347656 -14.265625 6.359375 -14.265625 C 7.648438 -14.265625 8.664062 -14.082031 9.40625 -13.71875 C 10.144531 -13.363281 10.722656 -12.863281 11.140625 -12.21875 L 9.96875 -11.078125 L 9.71875 -11.078125 C 9.269531 -11.597656 8.78125 -11.972656 8.25 -12.203125 C 7.71875 -12.429688 7.085938 -12.546875 6.359375 -12.546875 C 5.441406 -12.546875 4.734375 -12.378906 4.234375 -12.046875 C 3.742188 -11.710938 3.5 -11.234375 3.5 -10.609375 C 3.5 -10.046875 3.671875 -9.585938 4.015625 -9.234375 C 4.367188 -8.890625 4.976562 -8.613281 5.84375 -8.40625 L 8.15625 -7.84375 C 9.375 -7.5625 10.253906 -7.082031 10.796875 -6.40625 C 11.335938 -5.738281 11.609375 -4.898438 11.609375 -3.890625 C 11.609375 -3.078125 11.414062 -2.351562 11.03125 -1.71875 C 10.644531 -1.09375 10.054688 -0.601562 9.265625 -0.25 C 8.484375 0.09375 7.523438 0.265625 6.390625 0.265625 Z M 6.390625 0.265625 "/></g></g></g><g fill="#fffcef" fill-opacity="1"><g transform="translate(694.586584, 281.122423)"><g><path d="M 9.46875 -2.21875 L 10.125 -0.734375 C 9.800781 -0.398438 9.367188 -0.148438 8.828125 0.015625 C 8.296875 0.179688 7.710938 0.265625 7.078125 0.265625 C 4.410156 0.265625 3.078125 -1.085938 3.078125 -3.796875 L 3.078125 -12.3125 L 0.640625 -12.3125 L 0.640625 -14.015625 L 3.078125 -14.015625 L 3.078125 -16.96875 L 5.140625 -17.3125 L 5.140625 -14.015625 L 9.65625 -14.015625 L 9.65625 -12.3125 L 5.140625 -12.3125 L 5.140625 -4 C 5.140625 -2.394531 5.835938 -1.59375 7.234375 -1.59375 C 7.992188 -1.59375 8.648438 -1.800781 9.203125 -2.21875 Z M 9.46875 -2.21875 "/></g></g></g><g fill="#fffcef" fill-opacity="1"><g transform="translate(705.247441, 281.122423)"><g><path d="M 13.34375 -6.53125 L 3.71875 -6.53125 C 3.78125 -4.820312 4.1875 -3.570312 4.9375 -2.78125 C 5.695312 -1.988281 6.738281 -1.59375 8.0625 -1.59375 C 9.0625 -1.59375 9.863281 -1.769531 10.46875 -2.125 C 11.082031 -2.476562 11.5625 -3.035156 11.90625 -3.796875 L 12.171875 -3.796875 L 13.515625 -3 C 13.109375 -1.976562 12.457031 -1.175781 11.5625 -0.59375 C 10.675781 -0.0195312 9.507812 0.265625 8.0625 0.265625 C 6.707031 0.265625 5.539062 0 4.5625 -0.53125 C 3.59375 -1.0625 2.84375 -1.867188 2.3125 -2.953125 C 1.789062 -4.035156 1.53125 -5.382812 1.53125 -7 C 1.53125 -8.582031 1.804688 -9.921875 2.359375 -11.015625 C 2.921875 -12.109375 3.679688 -12.921875 4.640625 -13.453125 C 5.597656 -13.992188 6.695312 -14.265625 7.9375 -14.265625 C 9.726562 -14.265625 11.125 -13.757812 12.125 -12.75 C 13.132812 -11.738281 13.644531 -10.238281 13.65625 -8.25 C 13.65625 -7.46875 13.640625 -6.941406 13.609375 -6.671875 Z M 11.609375 -8.25 C 11.578125 -9.738281 11.25 -10.820312 10.625 -11.5 C 10 -12.175781 9.101562 -12.515625 7.9375 -12.515625 C 6.707031 -12.515625 5.742188 -12.171875 5.046875 -11.484375 C 4.347656 -10.804688 3.921875 -9.726562 3.765625 -8.25 Z M 11.609375 -8.25 "/></g></g></g><g fill="#fffcef" fill-opacity="1"><g transform="translate(627.850161, 317.12242)"><g><path d="M 8.8125 -18.5625 C 10.6875 -18.5625 12.296875 -18.222656 13.640625 -17.546875 C 14.992188 -16.878906 16.035156 -15.851562 16.765625 -14.46875 C 17.503906 -13.09375 17.875 -11.363281 17.875 -9.28125 C 17.875 -7.195312 17.503906 -5.460938 16.765625 -4.078125 C 16.035156 -2.703125 14.992188 -1.675781 13.640625 -1 C 12.296875 -0.332031 10.6875 0 8.8125 0 L 2.8125 0 L 2.8125 -18.5625 Z M 8.59375 -1.859375 C 10.144531 -1.859375 11.425781 -2.097656 12.4375 -2.578125 C 13.457031 -3.054688 14.226562 -3.84375 14.75 -4.9375 C 15.28125 -6.03125 15.546875 -7.476562 15.546875 -9.28125 C 15.546875 -11.09375 15.28125 -12.539062 14.75 -13.625 C 14.226562 -14.71875 13.457031 -15.503906 12.4375 -15.984375 C 11.425781 -16.460938 10.144531 -16.703125 8.59375 -16.703125 L 4.984375 -16.703125 L 4.984375 -1.859375 Z M 8.59375 -1.859375 "/></g></g></g><g fill="#fffcef" fill-opacity="1"><g transform="translate(647.572747, 317.12242)"><g><path d="M 3.484375 -16.703125 C 3.035156 -16.703125 2.675781 -16.835938 2.40625 -17.109375 C 2.132812 -17.390625 2 -17.742188 2 -18.171875 C 2 -18.585938 2.132812 -18.929688 2.40625 -19.203125 C 2.675781 -19.484375 3.035156 -19.625 3.484375 -19.625 C 3.921875 -19.625 4.273438 -19.484375 4.546875 -19.203125 C 4.828125 -18.929688 4.96875 -18.585938 4.96875 -18.171875 C 4.96875 -17.742188 4.828125 -17.390625 4.546875 -17.109375 C 4.273438 -16.835938 3.921875 -16.703125 3.484375 -16.703125 Z M 2.4375 0 L 2.4375 -14 L 4.5 -14 L 4.5 0 Z M 2.4375 0 "/></g></g></g><g fill="#fffcef" fill-opacity="1"><g transform="translate(654.514996, 317.12242)"><g><path d="M 6.390625 0.265625 C 5.503906 0.265625 4.6875 0.148438 3.9375 -0.078125 C 3.1875 -0.316406 2.550781 -0.640625 2.03125 -1.046875 C 1.519531 -1.453125 1.160156 -1.90625 0.953125 -2.40625 L 2.171875 -3.6875 L 2.4375 -3.6875 C 2.894531 -2.988281 3.441406 -2.460938 4.078125 -2.109375 C 4.722656 -1.765625 5.492188 -1.59375 6.390625 -1.59375 C 7.421875 -1.59375 8.203125 -1.789062 8.734375 -2.1875 C 9.273438 -2.59375 9.546875 -3.15625 9.546875 -3.875 C 9.546875 -4.425781 9.378906 -4.878906 9.046875 -5.234375 C 8.722656 -5.597656 8.203125 -5.867188 7.484375 -6.046875 L 5.109375 -6.625 C 3.847656 -6.925781 2.925781 -7.40625 2.34375 -8.0625 C 1.769531 -8.726562 1.484375 -9.550781 1.484375 -10.53125 C 1.484375 -11.289062 1.675781 -11.953125 2.0625 -12.515625 C 2.457031 -13.078125 3.019531 -13.507812 3.75 -13.8125 C 4.476562 -14.113281 5.347656 -14.265625 6.359375 -14.265625 C 7.648438 -14.265625 8.664062 -14.082031 9.40625 -13.71875 C 10.144531 -13.363281 10.722656 -12.863281 11.140625 -12.21875 L 9.96875 -11.078125 L 9.71875 -11.078125 C 9.269531 -11.597656 8.78125 -11.972656 8.25 -12.203125 C 7.71875 -12.429688 7.085938 -12.546875 6.359375 -12.546875 C 5.441406 -12.546875 4.734375 -12.378906 4.234375 -12.046875 C 3.742188 -11.710938 3.5 -11.234375 3.5 -10.609375 C 3.5 -10.046875 3.671875 -9.585938 4.015625 -9.234375 C 4.367188 -8.890625 4.976562 -8.613281 5.84375 -8.40625 L 8.15625 -7.84375 C 9.375 -7.5625 10.253906 -7.082031 10.796875 -6.40625 C 11.335938 -5.738281 11.609375 -4.898438 11.609375 -3.890625 C 11.609375 -3.078125 11.414062 -2.351562 11.03125 -1.71875 C 10.644531 -1.09375 10.054688 -0.601562 9.265625 -0.25 C 8.484375 0.09375 7.523438 0.265625 6.390625 0.265625 Z M 6.390625 0.265625 "/></g></g></g><g fill="#fffcef" fill-opacity="1"><g transform="translate(667.460322, 317.12242)"><g><path d="M 2.4375 5.671875 L 2.4375 -14 L 4.5 -14 L 4.5 -11.90625 L 4.78125 -11.859375 C 5.8125 -13.460938 7.335938 -14.265625 9.359375 -14.265625 C 10.523438 -14.265625 11.539062 -14 12.40625 -13.46875 C 13.28125 -12.9375 13.957031 -12.125 14.4375 -11.03125 C 14.925781 -9.945312 15.171875 -8.601562 15.171875 -7 C 15.171875 -5.394531 14.914062 -4.050781 14.40625 -2.96875 C 13.894531 -1.882812 13.191406 -1.070312 12.296875 -0.53125 C 11.398438 0 10.367188 0.265625 9.203125 0.265625 C 8.253906 0.265625 7.410156 0.101562 6.671875 -0.21875 C 5.941406 -0.550781 5.3125 -1.097656 4.78125 -1.859375 L 4.5 -1.796875 L 4.5 5.671875 Z M 8.75 -1.59375 C 11.582031 -1.59375 13 -3.394531 13 -7 C 13 -10.613281 11.582031 -12.421875 8.75 -12.421875 C 7.914062 -12.421875 7.179688 -12.226562 6.546875 -11.84375 C 5.910156 -11.46875 5.410156 -10.875 5.046875 -10.0625 C 4.679688 -9.25 4.5 -8.226562 4.5 -7 C 4.5 -5.769531 4.679688 -4.75 5.046875 -3.9375 C 5.410156 -3.132812 5.910156 -2.539062 6.546875 -2.15625 C 7.179688 -1.78125 7.914062 -1.59375 8.75 -1.59375 Z M 8.75 -1.59375 "/></g></g></g><g fill="#fffcef" fill-opacity="1"><g transform="translate(684.162332, 317.12242)"><g><path d="M 8.03125 0.265625 C 6.71875 0.265625 5.570312 -0.0078125 4.59375 -0.5625 C 3.613281 -1.125 2.859375 -1.945312 2.328125 -3.03125 C 1.796875 -4.125 1.53125 -5.445312 1.53125 -7 C 1.53125 -8.539062 1.796875 -9.859375 2.328125 -10.953125 C 2.859375 -12.046875 3.613281 -12.867188 4.59375 -13.421875 C 5.570312 -13.984375 6.71875 -14.265625 8.03125 -14.265625 C 9.351562 -14.265625 10.503906 -13.984375 11.484375 -13.421875 C 12.460938 -12.867188 13.210938 -12.046875 13.734375 -10.953125 C 14.265625 -9.859375 14.53125 -8.539062 14.53125 -7 C 14.53125 -5.445312 14.265625 -4.125 13.734375 -3.03125 C 13.210938 -1.945312 12.460938 -1.125 11.484375 -0.5625 C 10.503906 -0.0078125 9.351562 0.265625 8.03125 0.265625 Z M 8.03125 -1.59375 C 9.425781 -1.59375 10.492188 -2.03125 11.234375 -2.90625 C 11.984375 -3.789062 12.359375 -5.15625 12.359375 -7 C 12.359375 -8.851562 11.984375 -10.21875 11.234375 -11.09375 C 10.492188 -11.976562 9.425781 -12.421875 8.03125 -12.421875 C 6.632812 -12.421875 5.5625 -11.976562 4.8125 -11.09375 C 4.070312 -10.207031 3.703125 -8.84375 3.703125 -7 C 3.703125 -5.15625 4.070312 -3.789062 4.8125 -2.90625 C 5.5625 -2.03125 6.632812 -1.59375 8.03125 -1.59375 Z M 8.03125 -1.59375 "/></g></g></g><g fill="#fffcef" fill-opacity="1"><g transform="translate(700.229767, 317.12242)"><g><path d="M 6.390625 0.265625 C 5.503906 0.265625 4.6875 0.148438 3.9375 -0.078125 C 3.1875 -0.316406 2.550781 -0.640625 2.03125 -1.046875 C 1.519531 -1.453125 1.160156 -1.90625 0.953125 -2.40625 L 2.171875 -3.6875 L 2.4375 -3.6875 C 2.894531 -2.988281 3.441406 -2.460938 4.078125 -2.109375 C 4.722656 -1.765625 5.492188 -1.59375 6.390625 -1.59375 C 7.421875 -1.59375 8.203125 -1.789062 8.734375 -2.1875 C 9.273438 -2.59375 9.546875 -3.15625 9.546875 -3.875 C 9.546875 -4.425781 9.378906 -4.878906 9.046875 -5.234375 C 8.722656 -5.597656 8.203125 -5.867188 7.484375 -6.046875 L 5.109375 -6.625 C 3.847656 -6.925781 2.925781 -7.40625 2.34375 -8.0625 C 1.769531 -8.726562 1.484375 -9.550781 1.484375 -10.53125 C 1.484375 -11.289062 1.675781 -11.953125 2.0625 -12.515625 C 2.457031 -13.078125 3.019531 -13.507812 3.75 -13.8125 C 4.476562 -14.113281 5.347656 -14.265625 6.359375 -14.265625 C 7.648438 -14.265625 8.664062 -14.082031 9.40625 -13.71875 C 10.144531 -13.363281 10.722656 -12.863281 11.140625 -12.21875 L 9.96875 -11.078125 L 9.71875 -11.078125 C 9.269531 -11.597656 8.78125 -11.972656 8.25 -12.203125 C 7.71875 -12.429688 7.085938 -12.546875 6.359375 -12.546875 C 5.441406 -12.546875 4.734375 -12.378906 4.234375 -12.046875 C 3.742188 -11.710938 3.5 -11.234375 3.5 -10.609375 C 3.5 -10.046875 3.671875 -9.585938 4.015625 -9.234375 C 4.367188 -8.890625 4.976562 -8.613281 5.84375 -8.40625 L 8.15625 -7.84375 C 9.375 -7.5625 10.253906 -7.082031 10.796875 -6.40625 C 11.335938 -5.738281 11.609375 -4.898438 11.609375 -3.890625 C 11.609375 -3.078125 11.414062 -2.351562 11.03125 -1.71875 C 10.644531 -1.09375 10.054688 -0.601562 9.265625 -0.25 C 8.484375 0.09375 7.523438 0.265625 6.390625 0.265625 Z M 6.390625 0.265625 "/></g></g></g><g fill="#fffcef" fill-opacity="1"><g transform="translate(713.175094, 317.12242)"><g><path d="M 5.78125 0.265625 C 4.394531 0.265625 3.316406 -0.09375 2.546875 -0.8125 C 1.773438 -1.53125 1.390625 -2.554688 1.390625 -3.890625 C 1.390625 -4.722656 1.554688 -5.425781 1.890625 -6 C 2.234375 -6.570312 2.765625 -7.035156 3.484375 -7.390625 C 4.210938 -7.753906 5.15625 -8.035156 6.3125 -8.234375 C 7.320312 -8.398438 8.09375 -8.585938 8.625 -8.796875 C 9.15625 -9.003906 9.507812 -9.238281 9.6875 -9.5 C 9.875 -9.769531 9.96875 -10.101562 9.96875 -10.5 C 9.96875 -11.132812 9.75 -11.617188 9.3125 -11.953125 C 8.875 -12.296875 8.175781 -12.46875 7.21875 -12.46875 C 6.3125 -12.46875 5.53125 -12.289062 4.875 -11.9375 C 4.226562 -11.582031 3.632812 -11.0625 3.09375 -10.375 L 2.84375 -10.375 L 1.828125 -11.8125 C 2.421875 -12.5625 3.171875 -13.15625 4.078125 -13.59375 C 4.992188 -14.039062 6.039062 -14.265625 7.21875 -14.265625 C 8.863281 -14.265625 10.078125 -13.898438 10.859375 -13.171875 C 11.640625 -12.453125 12.03125 -11.457031 12.03125 -10.1875 L 12.03125 -2.75 C 12.03125 -1.976562 12.363281 -1.59375 13.03125 -1.59375 C 13.25 -1.59375 13.457031 -1.628906 13.65625 -1.703125 L 13.84375 -1.65625 L 14.078125 -0.21875 C 13.921875 -0.113281 13.71875 -0.0351562 13.46875 0.015625 C 13.226562 0.078125 12.972656 0.109375 12.703125 0.109375 C 11.929688 0.109375 11.347656 -0.0625 10.953125 -0.40625 C 10.566406 -0.75 10.316406 -1.25 10.203125 -1.90625 L 9.9375 -1.9375 C 9.539062 -1.195312 9.003906 -0.644531 8.328125 -0.28125 C 7.648438 0.0820312 6.800781 0.265625 5.78125 0.265625 Z M 6.234375 -1.390625 C 7.015625 -1.390625 7.6875 -1.566406 8.25 -1.921875 C 8.820312 -2.285156 9.257812 -2.789062 9.5625 -3.4375 C 9.875 -4.09375 10.03125 -4.847656 10.03125 -5.703125 L 10.03125 -7.484375 L 9.78125 -7.53125 C 9.46875 -7.3125 9.085938 -7.125 8.640625 -6.96875 C 8.191406 -6.820312 7.566406 -6.691406 6.765625 -6.578125 C 5.953125 -6.460938 5.304688 -6.289062 4.828125 -6.0625 C 4.347656 -5.832031 4.003906 -5.539062 3.796875 -5.1875 C 3.597656 -4.84375 3.5 -4.410156 3.5 -3.890625 C 3.5 -3.078125 3.738281 -2.457031 4.21875 -2.03125 C 4.707031 -1.601562 5.378906 -1.390625 6.234375 -1.390625 Z M 6.234375 -1.390625 "/></g></g></g><g fill="#fffcef" fill-opacity="1"><g transform="translate(727.656093, 317.12242)"><g><path d="M 5.578125 0.265625 C 4.585938 0.265625 3.804688 -0.015625 3.234375 -0.578125 C 2.671875 -1.140625 2.390625 -1.976562 2.390625 -3.09375 L 2.390625 -19.625 L 4.453125 -19.625 L 4.453125 -3.234375 C 4.453125 -2.648438 4.5625 -2.226562 4.78125 -1.96875 C 5.007812 -1.71875 5.363281 -1.59375 5.84375 -1.59375 C 6.125 -1.59375 6.414062 -1.640625 6.71875 -1.734375 L 6.890625 -1.671875 L 7.140625 -0.046875 C 6.984375 0.0546875 6.765625 0.132812 6.484375 0.1875 C 6.203125 0.238281 5.898438 0.265625 5.578125 0.265625 Z M 5.578125 0.265625 "/></g></g></g><g fill="#fffcef" fill-opacity="1"><g transform="translate(539.654653, 496.351197)"><g><path d="M 2.8125 0 L 2.8125 -18.5625 L 9.84375 -18.5625 C 10.976562 -18.5625 11.941406 -18.378906 12.734375 -18.015625 C 13.535156 -17.648438 14.132812 -17.128906 14.53125 -16.453125 C 14.9375 -15.785156 15.140625 -14.984375 15.140625 -14.046875 C 15.140625 -13.242188 14.921875 -12.515625 14.484375 -11.859375 C 14.054688 -11.210938 13.4375 -10.707031 12.625 -10.34375 L 12.625 -10.078125 C 13.851562 -9.773438 14.785156 -9.222656 15.421875 -8.421875 C 16.066406 -7.617188 16.390625 -6.609375 16.390625 -5.390625 C 16.390625 -3.660156 15.882812 -2.328125 14.875 -1.390625 C 13.863281 -0.460938 12.363281 0 10.375 0 Z M 9.734375 -10.765625 C 10.765625 -10.765625 11.5625 -11.03125 12.125 -11.5625 C 12.6875 -12.101562 12.96875 -12.84375 12.96875 -13.78125 C 12.96875 -14.769531 12.695312 -15.515625 12.15625 -16.015625 C 11.613281 -16.515625 10.804688 -16.765625 9.734375 -16.765625 L 4.984375 -16.765625 L 4.984375 -10.765625 Z M 10.203125 -1.796875 C 12.847656 -1.796875 14.171875 -2.992188 14.171875 -5.390625 C 14.171875 -7.773438 12.847656 -8.96875 10.203125 -8.96875 L 4.984375 -8.96875 L 4.984375 -1.796875 Z M 10.203125 -1.796875 "/></g></g></g><g fill="#fffcef" fill-opacity="1"><g transform="translate(557.51159, 496.351197)"><g><path d="M 6.921875 0.265625 C 5.335938 0.265625 4.15625 -0.148438 3.375 -0.984375 C 2.601562 -1.828125 2.21875 -3.054688 2.21875 -4.671875 L 2.21875 -14 L 4.296875 -14 L 4.296875 -4.71875 C 4.296875 -2.59375 5.289062 -1.53125 7.28125 -1.53125 C 8.550781 -1.53125 9.554688 -1.945312 10.296875 -2.78125 C 11.035156 -3.613281 11.40625 -4.957031 11.40625 -6.8125 L 11.40625 -14 L 13.46875 -14 L 13.46875 0 L 11.515625 0 L 11.515625 -2.203125 L 11.25 -2.265625 C 10.769531 -1.410156 10.191406 -0.773438 9.515625 -0.359375 C 8.835938 0.0546875 7.972656 0.265625 6.921875 0.265625 Z M 6.921875 0.265625 "/></g></g></g><g fill="#fffcef" fill-opacity="1"><g transform="translate(573.414035, 496.351197)"><g><path d="M 3.484375 -16.703125 C 3.035156 -16.703125 2.675781 -16.835938 2.40625 -17.109375 C 2.132812 -17.390625 2 -17.742188 2 -18.171875 C 2 -18.585938 2.132812 -18.929688 2.40625 -19.203125 C 2.675781 -19.484375 3.035156 -19.625 3.484375 -19.625 C 3.921875 -19.625 4.273438 -19.484375 4.546875 -19.203125 C 4.828125 -18.929688 4.96875 -18.585938 4.96875 -18.171875 C 4.96875 -17.742188 4.828125 -17.390625 4.546875 -17.109375 C 4.273438 -16.835938 3.921875 -16.703125 3.484375 -16.703125 Z M 2.4375 0 L 2.4375 -14 L 4.5 -14 L 4.5 0 Z M 2.4375 0 "/></g></g></g><g fill="#fffcef" fill-opacity="1"><g transform="translate(580.356284, 496.351197)"><g><path d="M 5.578125 0.265625 C 4.585938 0.265625 3.804688 -0.015625 3.234375 -0.578125 C 2.671875 -1.140625 2.390625 -1.976562 2.390625 -3.09375 L 2.390625 -19.625 L 4.453125 -19.625 L 4.453125 -3.234375 C 4.453125 -2.648438 4.5625 -2.226562 4.78125 -1.96875 C 5.007812 -1.71875 5.363281 -1.59375 5.84375 -1.59375 C 6.125 -1.59375 6.414062 -1.640625 6.71875 -1.734375 L 6.890625 -1.671875 L 7.140625 -0.046875 C 6.984375 0.0546875 6.765625 0.132812 6.484375 0.1875 C 6.203125 0.238281 5.898438 0.265625 5.578125 0.265625 Z M 5.578125 0.265625 "/></g></g></g><g fill="#fffcef" fill-opacity="1"><g transform="translate(587.971182, 496.351197)"><g><path d="M 7.265625 0.265625 C 6.140625 0.265625 5.144531 0 4.28125 -0.53125 C 3.425781 -1.070312 2.753906 -1.882812 2.265625 -2.96875 C 1.773438 -4.050781 1.53125 -5.394531 1.53125 -7 C 1.53125 -8.59375 1.785156 -9.929688 2.296875 -11.015625 C 2.804688 -12.109375 3.503906 -12.921875 4.390625 -13.453125 C 5.285156 -13.992188 6.320312 -14.265625 7.5 -14.265625 C 8.4375 -14.265625 9.273438 -14.085938 10.015625 -13.734375 C 10.765625 -13.390625 11.40625 -12.816406 11.9375 -12.015625 L 12.203125 -12.0625 L 12.203125 -19.625 L 14.265625 -19.625 L 14.265625 0 L 12.203125 0 L 12.203125 -2.046875 L 11.9375 -2.09375 C 11.476562 -1.394531 10.859375 -0.828125 10.078125 -0.390625 C 9.296875 0.046875 8.359375 0.265625 7.265625 0.265625 Z M 7.90625 -1.59375 C 9.207031 -1.59375 10.25 -2.035156 11.03125 -2.921875 C 11.8125 -3.816406 12.203125 -5.175781 12.203125 -7 C 12.203125 -8.820312 11.8125 -10.179688 11.03125 -11.078125 C 10.25 -11.972656 9.207031 -12.421875 7.90625 -12.421875 C 6.5625 -12.421875 5.523438 -11.984375 4.796875 -11.109375 C 4.066406 -10.234375 3.703125 -8.863281 3.703125 -7 C 3.703125 -3.394531 5.101562 -1.59375 7.90625 -1.59375 Z M 7.90625 -1.59375 "/></g></g></g><g fill="#fffcef" fill-opacity="1"><g transform="translate(604.685884, 496.351197)"><g><path d="M 3.484375 -16.703125 C 3.035156 -16.703125 2.675781 -16.835938 2.40625 -17.109375 C 2.132812 -17.390625 2 -17.742188 2 -18.171875 C 2 -18.585938 2.132812 -18.929688 2.40625 -19.203125 C 2.675781 -19.484375 3.035156 -19.625 3.484375 -19.625 C 3.921875 -19.625 4.273438 -19.484375 4.546875 -19.203125 C 4.828125 -18.929688 4.96875 -18.585938 4.96875 -18.171875 C 4.96875 -17.742188 4.828125 -17.390625 4.546875 -17.109375 C 4.273438 -16.835938 3.921875 -16.703125 3.484375 -16.703125 Z M 2.4375 0 L 2.4375 -14 L 4.5 -14 L 4.5 0 Z M 2.4375 0 "/></g></g></g><g fill="#fffcef" fill-opacity="1"><g transform="translate(611.628133, 496.351197)"><g><path d="M 2.4375 0 L 2.4375 -14 L 4.40625 -14 L 4.40625 -11.8125 L 4.671875 -11.75 C 5.140625 -12.5625 5.734375 -13.179688 6.453125 -13.609375 C 7.179688 -14.046875 8.066406 -14.265625 9.109375 -14.265625 C 10.785156 -14.265625 12.003906 -13.832031 12.765625 -12.96875 C 13.523438 -12.113281 13.90625 -10.796875 13.90625 -9.015625 L 13.90625 0 L 11.828125 0 L 11.828125 -8.96875 C 11.828125 -9.8125 11.71875 -10.488281 11.5 -11 C 11.289062 -11.507812 10.957031 -11.878906 10.5 -12.109375 C 10.050781 -12.347656 9.457031 -12.46875 8.71875 -12.46875 C 7.457031 -12.46875 6.4375 -12.050781 5.65625 -11.21875 C 4.882812 -10.382812 4.5 -9.039062 4.5 -7.1875 L 4.5 0 Z M 2.4375 0 "/></g></g></g><g fill="#fffcef" fill-opacity="1"><g transform="translate(627.746334, 496.351197)"><g><path d="M 7.21875 5.9375 C 5 5.9375 3.378906 5.566406 2.359375 4.828125 C 1.347656 4.097656 0.84375 3.125 0.84375 1.90625 C 0.84375 1.113281 1.078125 0.484375 1.546875 0.015625 C 2.023438 -0.441406 2.71875 -0.773438 3.625 -0.984375 L 3.625 -1.25 C 3.195312 -1.488281 2.875 -1.773438 2.65625 -2.109375 C 2.445312 -2.441406 2.34375 -2.832031 2.34375 -3.28125 C 2.34375 -3.820312 2.507812 -4.257812 2.84375 -4.59375 C 3.1875 -4.9375 3.695312 -5.203125 4.375 -5.390625 L 4.375 -5.65625 C 2.851562 -6.457031 2.09375 -7.765625 2.09375 -9.578125 C 2.09375 -10.484375 2.300781 -11.289062 2.71875 -12 C 3.132812 -12.71875 3.726562 -13.273438 4.5 -13.671875 C 5.269531 -14.066406 6.164062 -14.265625 7.1875 -14.265625 C 8.363281 -14.265625 9.34375 -14.007812 10.125 -13.5 C 10.425781 -13.820312 10.648438 -14.171875 10.796875 -14.546875 C 10.941406 -14.929688 11.035156 -15.359375 11.078125 -15.828125 L 11.34375 -16 L 13.046875 -15.59375 C 12.960938 -14.882812 12.75 -14.28125 12.40625 -13.78125 C 12.0625 -13.289062 11.578125 -12.882812 10.953125 -12.5625 L 10.953125 -12.296875 C 11.398438 -11.941406 11.734375 -11.523438 11.953125 -11.046875 C 12.171875 -10.566406 12.28125 -10.007812 12.28125 -9.375 C 12.28125 -8.5 12.066406 -7.707031 11.640625 -7 C 11.210938 -6.300781 10.613281 -5.75 9.84375 -5.34375 C 9.082031 -4.945312 8.195312 -4.75 7.1875 -4.75 C 7.070312 -4.75 6.859375 -4.757812 6.546875 -4.78125 C 6.210938 -4.789062 5.960938 -4.796875 5.796875 -4.796875 C 5.359375 -4.796875 5.007812 -4.679688 4.75 -4.453125 C 4.488281 -4.222656 4.359375 -3.929688 4.359375 -3.578125 C 4.359375 -3.140625 4.5 -2.816406 4.78125 -2.609375 C 5.0625 -2.398438 5.53125 -2.285156 6.1875 -2.265625 L 9.5 -2.140625 C 10.925781 -2.085938 11.984375 -1.753906 12.671875 -1.140625 C 13.367188 -0.535156 13.71875 0.328125 13.71875 1.453125 C 13.71875 2.296875 13.488281 3.050781 13.03125 3.71875 C 12.582031 4.394531 11.875 4.929688 10.90625 5.328125 C 9.9375 5.734375 8.707031 5.9375 7.21875 5.9375 Z M 7.1875 -6.53125 C 8.175781 -6.53125 8.941406 -6.785156 9.484375 -7.296875 C 10.023438 -7.816406 10.296875 -8.539062 10.296875 -9.46875 C 10.296875 -10.4375 10.023438 -11.179688 9.484375 -11.703125 C 8.953125 -12.234375 8.1875 -12.5 7.1875 -12.5 C 6.1875 -12.5 5.421875 -12.238281 4.890625 -11.71875 C 4.367188 -11.195312 4.109375 -10.445312 4.109375 -9.46875 C 4.109375 -8.53125 4.367188 -7.804688 4.890625 -7.296875 C 5.421875 -6.785156 6.1875 -6.53125 7.1875 -6.53125 Z M 7.21875 4.171875 C 8.25 4.171875 9.09375 4.054688 9.75 3.828125 C 10.40625 3.597656 10.875 3.289062 11.15625 2.90625 C 11.445312 2.53125 11.59375 2.113281 11.59375 1.65625 C 11.59375 1.238281 11.515625 0.898438 11.359375 0.640625 C 11.203125 0.390625 10.945312 0.203125 10.59375 0.078125 C 10.25 -0.046875 9.773438 -0.128906 9.171875 -0.171875 L 6.046875 -0.3125 L 5.59375 -0.3125 C 3.84375 -0.289062 2.96875 0.390625 2.96875 1.734375 C 2.96875 3.359375 4.382812 4.171875 7.21875 4.171875 Z M 7.21875 4.171875 "/></g></g></g><g fill="#fffcef" fill-opacity="1"><g transform="translate(542.408559, 532.351195)"><g><path d="M 5.78125 0.265625 C 4.394531 0.265625 3.316406 -0.09375 2.546875 -0.8125 C 1.773438 -1.53125 1.390625 -2.554688 1.390625 -3.890625 C 1.390625 -4.722656 1.554688 -5.425781 1.890625 -6 C 2.234375 -6.570312 2.765625 -7.035156 3.484375 -7.390625 C 4.210938 -7.753906 5.15625 -8.035156 6.3125 -8.234375 C 7.320312 -8.398438 8.09375 -8.585938 8.625 -8.796875 C 9.15625 -9.003906 9.507812 -9.238281 9.6875 -9.5 C 9.875 -9.769531 9.96875 -10.101562 9.96875 -10.5 C 9.96875 -11.132812 9.75 -11.617188 9.3125 -11.953125 C 8.875 -12.296875 8.175781 -12.46875 7.21875 -12.46875 C 6.3125 -12.46875 5.53125 -12.289062 4.875 -11.9375 C 4.226562 -11.582031 3.632812 -11.0625 3.09375 -10.375 L 2.84375 -10.375 L 1.828125 -11.8125 C 2.421875 -12.5625 3.171875 -13.15625 4.078125 -13.59375 C 4.992188 -14.039062 6.039062 -14.265625 7.21875 -14.265625 C 8.863281 -14.265625 10.078125 -13.898438 10.859375 -13.171875 C 11.640625 -12.453125 12.03125 -11.457031 12.03125 -10.1875 L 12.03125 -2.75 C 12.03125 -1.976562 12.363281 -1.59375 13.03125 -1.59375 C 13.25 -1.59375 13.457031 -1.628906 13.65625 -1.703125 L 13.84375 -1.65625 L 14.078125 -0.21875 C 13.921875 -0.113281 13.71875 -0.0351562 13.46875 0.015625 C 13.226562 0.078125 12.972656 0.109375 12.703125 0.109375 C 11.929688 0.109375 11.347656 -0.0625 10.953125 -0.40625 C 10.566406 -0.75 10.316406 -1.25 10.203125 -1.90625 L 9.9375 -1.9375 C 9.539062 -1.195312 9.003906 -0.644531 8.328125 -0.28125 C 7.648438 0.0820312 6.800781 0.265625 5.78125 0.265625 Z M 6.234375 -1.390625 C 7.015625 -1.390625 7.6875 -1.566406 8.25 -1.921875 C 8.820312 -2.285156 9.257812 -2.789062 9.5625 -3.4375 C 9.875 -4.09375 10.03125 -4.847656 10.03125 -5.703125 L 10.03125 -7.484375 L 9.78125 -7.53125 C 9.46875 -7.3125 9.085938 -7.125 8.640625 -6.96875 C 8.191406 -6.820312 7.566406 -6.691406 6.765625 -6.578125 C 5.953125 -6.460938 5.304688 -6.289062 4.828125 -6.0625 C 4.347656 -5.832031 4.003906 -5.539062 3.796875 -5.1875 C 3.597656 -4.84375 3.5 -4.410156 3.5 -3.890625 C 3.5 -3.078125 3.738281 -2.457031 4.21875 -2.03125 C 4.707031 -1.601562 5.378906 -1.390625 6.234375 -1.390625 Z M 6.234375 -1.390625 "/></g></g></g><g fill="#fffcef" fill-opacity="1"><g transform="translate(556.889558, 532.351195)"><g/></g></g><g fill="#fffcef" fill-opacity="1"><g transform="translate(563.260689, 532.351195)"><g><path d="M 9.765625 0.265625 C 8.203125 0.265625 6.828125 -0.0859375 5.640625 -0.796875 C 4.453125 -1.503906 3.523438 -2.570312 2.859375 -4 C 2.191406 -5.4375 1.859375 -7.195312 1.859375 -9.28125 C 1.859375 -11.363281 2.210938 -13.117188 2.921875 -14.546875 C 3.640625 -15.972656 4.632812 -17.039062 5.90625 -17.75 C 7.175781 -18.46875 8.640625 -18.828125 10.296875 -18.828125 C 12.078125 -18.828125 13.535156 -18.503906 14.671875 -17.859375 C 15.816406 -17.222656 16.625 -16.269531 17.09375 -15 L 15.671875 -14.171875 L 15.359375 -14.171875 C 14.878906 -15.128906 14.226562 -15.816406 13.40625 -16.234375 C 12.582031 -16.660156 11.546875 -16.875 10.296875 -16.875 C 6.222656 -16.875 4.1875 -14.34375 4.1875 -9.28125 C 4.1875 -6.644531 4.695312 -4.722656 5.71875 -3.515625 C 6.75 -2.304688 8.1875 -1.703125 10.03125 -1.703125 C 11.71875 -1.703125 12.984375 -2.085938 13.828125 -2.859375 C 14.671875 -3.628906 15.09375 -4.84375 15.09375 -6.5 L 15.09375 -8.140625 L 9.8125 -8.140625 L 9.8125 -9.890625 L 17.21875 -9.890625 L 17.21875 0 L 15.203125 0 L 15.203125 -2.484375 L 14.9375 -2.546875 C 14.4375 -1.597656 13.75 -0.890625 12.875 -0.421875 C 12 0.0351562 10.960938 0.265625 9.765625 0.265625 Z M 9.765625 0.265625 "/></g></g></g><g fill="#fffcef" fill-opacity="1"><g transform="translate(582.551765, 532.351195)"><g><path d="M 2.4375 0 L 2.4375 -14 L 4.40625 -14 L 4.40625 -11.8125 L 4.671875 -11.75 C 5.328125 -13.332031 6.554688 -14.125 8.359375 -14.125 C 9.304688 -14.125 10.019531 -13.953125 10.5 -13.609375 L 9.96875 -11.859375 L 9.71875 -11.8125 C 9.1875 -12.070312 8.609375 -12.203125 7.984375 -12.203125 C 6.867188 -12.203125 6.007812 -11.78125 5.40625 -10.9375 C 4.800781 -10.101562 4.5 -8.75 4.5 -6.875 L 4.5 0 Z M 2.4375 0 "/></g></g></g><g fill="#fffcef" fill-opacity="1"><g transform="translate(593.364921, 532.351195)"><g><path d="M 13.34375 -6.53125 L 3.71875 -6.53125 C 3.78125 -4.820312 4.1875 -3.570312 4.9375 -2.78125 C 5.695312 -1.988281 6.738281 -1.59375 8.0625 -1.59375 C 9.0625 -1.59375 9.863281 -1.769531 10.46875 -2.125 C 11.082031 -2.476562 11.5625 -3.035156 11.90625 -3.796875 L 12.171875 -3.796875 L 13.515625 -3 C 13.109375 -1.976562 12.457031 -1.175781 11.5625 -0.59375 C 10.675781 -0.0195312 9.507812 0.265625 8.0625 0.265625 C 6.707031 0.265625 5.539062 0 4.5625 -0.53125 C 3.59375 -1.0625 2.84375 -1.867188 2.3125 -2.953125 C 1.789062 -4.035156 1.53125 -5.382812 1.53125 -7 C 1.53125 -8.582031 1.804688 -9.921875 2.359375 -11.015625 C 2.921875 -12.109375 3.679688 -12.921875 4.640625 -13.453125 C 5.597656 -13.992188 6.695312 -14.265625 7.9375 -14.265625 C 9.726562 -14.265625 11.125 -13.757812 12.125 -12.75 C 13.132812 -11.738281 13.644531 -10.238281 13.65625 -8.25 C 13.65625 -7.46875 13.640625 -6.941406 13.609375 -6.671875 Z M 11.609375 -8.25 C 11.578125 -9.738281 11.25 -10.820312 10.625 -11.5 C 10 -12.175781 9.101562 -12.515625 7.9375 -12.515625 C 6.707031 -12.515625 5.742188 -12.171875 5.046875 -11.484375 C 4.347656 -10.804688 3.921875 -9.726562 3.765625 -8.25 Z M 11.609375 -8.25 "/></g></g></g><g fill="#fffcef" fill-opacity="1"><g transform="translate(608.290121, 532.351195)"><g><path d="M 13.34375 -6.53125 L 3.71875 -6.53125 C 3.78125 -4.820312 4.1875 -3.570312 4.9375 -2.78125 C 5.695312 -1.988281 6.738281 -1.59375 8.0625 -1.59375 C 9.0625 -1.59375 9.863281 -1.769531 10.46875 -2.125 C 11.082031 -2.476562 11.5625 -3.035156 11.90625 -3.796875 L 12.171875 -3.796875 L 13.515625 -3 C 13.109375 -1.976562 12.457031 -1.175781 11.5625 -0.59375 C 10.675781 -0.0195312 9.507812 0.265625 8.0625 0.265625 C 6.707031 0.265625 5.539062 0 4.5625 -0.53125 C 3.59375 -1.0625 2.84375 -1.867188 2.3125 -2.953125 C 1.789062 -4.035156 1.53125 -5.382812 1.53125 -7 C 1.53125 -8.582031 1.804688 -9.921875 2.359375 -11.015625 C 2.921875 -12.109375 3.679688 -12.921875 4.640625 -13.453125 C 5.597656 -13.992188 6.695312 -14.265625 7.9375 -14.265625 C 9.726562 -14.265625 11.125 -13.757812 12.125 -12.75 C 13.132812 -11.738281 13.644531 -10.238281 13.65625 -8.25 C 13.65625 -7.46875 13.640625 -6.941406 13.609375 -6.671875 Z M 11.609375 -8.25 C 11.578125 -9.738281 11.25 -10.820312 10.625 -11.5 C 10 -12.175781 9.101562 -12.515625 7.9375 -12.515625 C 6.707031 -12.515625 5.742188 -12.171875 5.046875 -11.484375 C 4.347656 -10.804688 3.921875 -9.726562 3.765625 -8.25 Z M 11.609375 -8.25 "/></g></g></g><g fill="#fffcef" fill-opacity="1"><g transform="translate(623.215322, 532.351195)"><g><path d="M 2.4375 0 L 2.4375 -14 L 4.40625 -14 L 4.40625 -11.8125 L 4.671875 -11.75 C 5.140625 -12.5625 5.734375 -13.179688 6.453125 -13.609375 C 7.179688 -14.046875 8.066406 -14.265625 9.109375 -14.265625 C 10.785156 -14.265625 12.003906 -13.832031 12.765625 -12.96875 C 13.523438 -12.113281 13.90625 -10.796875 13.90625 -9.015625 L 13.90625 0 L 11.828125 0 L 11.828125 -8.96875 C 11.828125 -9.8125 11.71875 -10.488281 11.5 -11 C 11.289062 -11.507812 10.957031 -11.878906 10.5 -12.109375 C 10.050781 -12.347656 9.457031 -12.46875 8.71875 -12.46875 C 7.457031 -12.46875 6.4375 -12.050781 5.65625 -11.21875 C 4.882812 -10.382812 4.5 -9.039062 4.5 -7.1875 L 4.5 0 Z M 2.4375 0 "/></g></g></g><g fill="#fffcef" fill-opacity="1"><g transform="translate(561.568715, 568.351192)"><g><path d="M 14.640625 -11.03125 L 14.640625 -18.5625 L 16.8125 -18.5625 L 16.8125 0 L 14.640625 0 L 14.640625 -9.171875 L 4.984375 -9.171875 L 4.984375 0 L 2.8125 0 L 2.8125 -18.5625 L 4.984375 -18.5625 L 4.984375 -11.03125 Z M 14.640625 -11.03125 "/></g></g></g><g fill="#fffcef" fill-opacity="1"><g transform="translate(581.189769, 568.351192)"><g><path d="M 6.921875 0.265625 C 5.335938 0.265625 4.15625 -0.148438 3.375 -0.984375 C 2.601562 -1.828125 2.21875 -3.054688 2.21875 -4.671875 L 2.21875 -14 L 4.296875 -14 L 4.296875 -4.71875 C 4.296875 -2.59375 5.289062 -1.53125 7.28125 -1.53125 C 8.550781 -1.53125 9.554688 -1.945312 10.296875 -2.78125 C 11.035156 -3.613281 11.40625 -4.957031 11.40625 -6.8125 L 11.40625 -14 L 13.46875 -14 L 13.46875 0 L 11.515625 0 L 11.515625 -2.203125 L 11.25 -2.265625 C 10.769531 -1.410156 10.191406 -0.773438 9.515625 -0.359375 C 8.835938 0.0546875 7.972656 0.265625 6.921875 0.265625 Z M 6.921875 0.265625 "/></g></g></g><g fill="#fffcef" fill-opacity="1"><g transform="translate(597.092214, 568.351192)"><g><path d="M 9.3125 0.265625 C 8.269531 0.265625 7.363281 0.0664062 6.59375 -0.328125 C 5.832031 -0.734375 5.226562 -1.269531 4.78125 -1.9375 L 4.5 -1.875 L 4.5 0 L 2.4375 0 L 2.4375 -19.625 L 4.5 -19.625 L 4.5 -11.90625 L 4.78125 -11.859375 C 5.84375 -13.460938 7.390625 -14.265625 9.421875 -14.265625 C 10.566406 -14.265625 11.570312 -14 12.4375 -13.46875 C 13.300781 -12.9375 13.972656 -12.125 14.453125 -11.03125 C 14.929688 -9.945312 15.171875 -8.601562 15.171875 -7 C 15.171875 -5.40625 14.914062 -4.0625 14.40625 -2.96875 C 13.90625 -1.882812 13.210938 -1.070312 12.328125 -0.53125 C 11.453125 0 10.445312 0.265625 9.3125 0.265625 Z M 8.8125 -1.59375 C 11.601562 -1.59375 13 -3.394531 13 -7 C 13 -8.863281 12.632812 -10.234375 11.90625 -11.109375 C 11.175781 -11.984375 10.144531 -12.421875 8.8125 -12.421875 C 7.5 -12.421875 6.453125 -11.972656 5.671875 -11.078125 C 4.890625 -10.179688 4.5 -8.820312 4.5 -7 C 4.5 -5.175781 4.890625 -3.816406 5.671875 -2.921875 C 6.453125 -2.035156 7.5 -1.59375 8.8125 -1.59375 Z M 8.8125 -1.59375 "/></g></g></g><g fill="#fffcef" fill-opacity="1"><g transform="translate(613.787461, 568.351192)"><g/></g></g><g fill="#fffcef" fill-opacity="1"><g transform="translate(238.397971, 281.122423)"><g><path d="M 9.765625 0.265625 C 8.203125 0.265625 6.828125 -0.0859375 5.640625 -0.796875 C 4.453125 -1.503906 3.523438 -2.570312 2.859375 -4 C 2.191406 -5.4375 1.859375 -7.195312 1.859375 -9.28125 C 1.859375 -11.363281 2.210938 -13.117188 2.921875 -14.546875 C 3.640625 -15.972656 4.632812 -17.039062 5.90625 -17.75 C 7.175781 -18.46875 8.640625 -18.828125 10.296875 -18.828125 C 12.078125 -18.828125 13.535156 -18.503906 14.671875 -17.859375 C 15.816406 -17.222656 16.625 -16.269531 17.09375 -15 L 15.671875 -14.171875 L 15.359375 -14.171875 C 14.878906 -15.128906 14.226562 -15.816406 13.40625 -16.234375 C 12.582031 -16.660156 11.546875 -16.875 10.296875 -16.875 C 6.222656 -16.875 4.1875 -14.34375 4.1875 -9.28125 C 4.1875 -6.644531 4.695312 -4.722656 5.71875 -3.515625 C 6.75 -2.304688 8.1875 -1.703125 10.03125 -1.703125 C 11.71875 -1.703125 12.984375 -2.085938 13.828125 -2.859375 C 14.671875 -3.628906 15.09375 -4.84375 15.09375 -6.5 L 15.09375 -8.140625 L 9.8125 -8.140625 L 9.8125 -9.890625 L 17.21875 -9.890625 L 17.21875 0 L 15.203125 0 L 15.203125 -2.484375 L 14.9375 -2.546875 C 14.4375 -1.597656 13.75 -0.890625 12.875 -0.421875 C 12 0.0351562 10.960938 0.265625 9.765625 0.265625 Z M 9.765625 0.265625 "/></g></g></g><g fill="#fffcef" fill-opacity="1"><g transform="translate(257.689047, 281.122423)"><g><path d="M 2.4375 0 L 2.4375 -14 L 4.40625 -14 L 4.40625 -11.8125 L 4.671875 -11.75 C 5.328125 -13.332031 6.554688 -14.125 8.359375 -14.125 C 9.304688 -14.125 10.019531 -13.953125 10.5 -13.609375 L 9.96875 -11.859375 L 9.71875 -11.8125 C 9.1875 -12.070312 8.609375 -12.203125 7.984375 -12.203125 C 6.867188 -12.203125 6.007812 -11.78125 5.40625 -10.9375 C 4.800781 -10.101562 4.5 -8.75 4.5 -6.875 L 4.5 0 Z M 2.4375 0 "/></g></g></g><g fill="#fffcef" fill-opacity="1"><g transform="translate(268.502203, 281.122423)"><g><path d="M 13.34375 -6.53125 L 3.71875 -6.53125 C 3.78125 -4.820312 4.1875 -3.570312 4.9375 -2.78125 C 5.695312 -1.988281 6.738281 -1.59375 8.0625 -1.59375 C 9.0625 -1.59375 9.863281 -1.769531 10.46875 -2.125 C 11.082031 -2.476562 11.5625 -3.035156 11.90625 -3.796875 L 12.171875 -3.796875 L 13.515625 -3 C 13.109375 -1.976562 12.457031 -1.175781 11.5625 -0.59375 C 10.675781 -0.0195312 9.507812 0.265625 8.0625 0.265625 C 6.707031 0.265625 5.539062 0 4.5625 -0.53125 C 3.59375 -1.0625 2.84375 -1.867188 2.3125 -2.953125 C 1.789062 -4.035156 1.53125 -5.382812 1.53125 -7 C 1.53125 -8.582031 1.804688 -9.921875 2.359375 -11.015625 C 2.921875 -12.109375 3.679688 -12.921875 4.640625 -13.453125 C 5.597656 -13.992188 6.695312 -14.265625 7.9375 -14.265625 C 9.726562 -14.265625 11.125 -13.757812 12.125 -12.75 C 13.132812 -11.738281 13.644531 -10.238281 13.65625 -8.25 C 13.65625 -7.46875 13.640625 -6.941406 13.609375 -6.671875 Z M 11.609375 -8.25 C 11.578125 -9.738281 11.25 -10.820312 10.625 -11.5 C 10 -12.175781 9.101562 -12.515625 7.9375 -12.515625 C 6.707031 -12.515625 5.742188 -12.171875 5.046875 -11.484375 C 4.347656 -10.804688 3.921875 -9.726562 3.765625 -8.25 Z M 11.609375 -8.25 "/></g></g></g><g fill="#fffcef" fill-opacity="1"><g transform="translate(283.427403, 281.122423)"><g><path d="M 13.34375 -6.53125 L 3.71875 -6.53125 C 3.78125 -4.820312 4.1875 -3.570312 4.9375 -2.78125 C 5.695312 -1.988281 6.738281 -1.59375 8.0625 -1.59375 C 9.0625 -1.59375 9.863281 -1.769531 10.46875 -2.125 C 11.082031 -2.476562 11.5625 -3.035156 11.90625 -3.796875 L 12.171875 -3.796875 L 13.515625 -3 C 13.109375 -1.976562 12.457031 -1.175781 11.5625 -0.59375 C 10.675781 -0.0195312 9.507812 0.265625 8.0625 0.265625 C 6.707031 0.265625 5.539062 0 4.5625 -0.53125 C 3.59375 -1.0625 2.84375 -1.867188 2.3125 -2.953125 C 1.789062 -4.035156 1.53125 -5.382812 1.53125 -7 C 1.53125 -8.582031 1.804688 -9.921875 2.359375 -11.015625 C 2.921875 -12.109375 3.679688 -12.921875 4.640625 -13.453125 C 5.597656 -13.992188 6.695312 -14.265625 7.9375 -14.265625 C 9.726562 -14.265625 11.125 -13.757812 12.125 -12.75 C 13.132812 -11.738281 13.644531 -10.238281 13.65625 -8.25 C 13.65625 -7.46875 13.640625 -6.941406 13.609375 -6.671875 Z M 11.609375 -8.25 C 11.578125 -9.738281 11.25 -10.820312 10.625 -11.5 C 10 -12.175781 9.101562 -12.515625 7.9375 -12.515625 C 6.707031 -12.515625 5.742188 -12.171875 5.046875 -11.484375 C 4.347656 -10.804688 3.921875 -9.726562 3.765625 -8.25 Z M 11.609375 -8.25 "/></g></g></g><g fill="#fffcef" fill-opacity="1"><g transform="translate(298.352604, 281.122423)"><g><path d="M 2.4375 0 L 2.4375 -14 L 4.40625 -14 L 4.40625 -11.8125 L 4.671875 -11.75 C 5.140625 -12.5625 5.734375 -13.179688 6.453125 -13.609375 C 7.179688 -14.046875 8.066406 -14.265625 9.109375 -14.265625 C 10.785156 -14.265625 12.003906 -13.832031 12.765625 -12.96875 C 13.523438 -12.113281 13.90625 -10.796875 13.90625 -9.015625 L 13.90625 0 L 11.828125 0 L 11.828125 -8.96875 C 11.828125 -9.8125 11.71875 -10.488281 11.5 -11 C 11.289062 -11.507812 10.957031 -11.878906 10.5 -12.109375 C 10.050781 -12.347656 9.457031 -12.46875 8.71875 -12.46875 C 7.457031 -12.46875 6.4375 -12.050781 5.65625 -11.21875 C 4.882812 -10.382812 4.5 -9.039062 4.5 -7.1875 L 4.5 0 Z M 2.4375 0 "/></g></g></g><g fill="#fffcef" fill-opacity="1"><g transform="translate(229.679222, 317.12242)"><g><path d="M 9.453125 -18.5625 C 10.722656 -18.5625 11.816406 -18.332031 12.734375 -17.875 C 13.648438 -17.414062 14.347656 -16.757812 14.828125 -15.90625 C 15.304688 -15.0625 15.546875 -14.0625 15.546875 -12.90625 C 15.546875 -11.757812 15.304688 -10.757812 14.828125 -9.90625 C 14.347656 -9.0625 13.648438 -8.410156 12.734375 -7.953125 C 11.816406 -7.492188 10.722656 -7.265625 9.453125 -7.265625 L 4.984375 -7.265625 L 4.984375 0 L 2.8125 0 L 2.8125 -18.5625 Z M 9.375 -9.125 C 11.957031 -9.125 13.25 -10.382812 13.25 -12.90625 C 13.25 -15.4375 11.957031 -16.703125 9.375 -16.703125 L 4.984375 -16.703125 L 4.984375 -9.125 Z M 9.375 -9.125 "/></g></g></g><g fill="#fffcef" fill-opacity="1"><g transform="translate(246.596987, 317.12242)"><g><path d="M 13.34375 -6.53125 L 3.71875 -6.53125 C 3.78125 -4.820312 4.1875 -3.570312 4.9375 -2.78125 C 5.695312 -1.988281 6.738281 -1.59375 8.0625 -1.59375 C 9.0625 -1.59375 9.863281 -1.769531 10.46875 -2.125 C 11.082031 -2.476562 11.5625 -3.035156 11.90625 -3.796875 L 12.171875 -3.796875 L 13.515625 -3 C 13.109375 -1.976562 12.457031 -1.175781 11.5625 -0.59375 C 10.675781 -0.0195312 9.507812 0.265625 8.0625 0.265625 C 6.707031 0.265625 5.539062 0 4.5625 -0.53125 C 3.59375 -1.0625 2.84375 -1.867188 2.3125 -2.953125 C 1.789062 -4.035156 1.53125 -5.382812 1.53125 -7 C 1.53125 -8.582031 1.804688 -9.921875 2.359375 -11.015625 C 2.921875 -12.109375 3.679688 -12.921875 4.640625 -13.453125 C 5.597656 -13.992188 6.695312 -14.265625 7.9375 -14.265625 C 9.726562 -14.265625 11.125 -13.757812 12.125 -12.75 C 13.132812 -11.738281 13.644531 -10.238281 13.65625 -8.25 C 13.65625 -7.46875 13.640625 -6.941406 13.609375 -6.671875 Z M 11.609375 -8.25 C 11.578125 -9.738281 11.25 -10.820312 10.625 -11.5 C 10 -12.175781 9.101562 -12.515625 7.9375 -12.515625 C 6.707031 -12.515625 5.742188 -12.171875 5.046875 -11.484375 C 4.347656 -10.804688 3.921875 -9.726562 3.765625 -8.25 Z M 11.609375 -8.25 "/></g></g></g><g fill="#fffcef" fill-opacity="1"><g transform="translate(261.522188, 317.12242)"><g><path d="M 8.03125 0.265625 C 6.71875 0.265625 5.570312 -0.0078125 4.59375 -0.5625 C 3.613281 -1.125 2.859375 -1.945312 2.328125 -3.03125 C 1.796875 -4.125 1.53125 -5.445312 1.53125 -7 C 1.53125 -8.539062 1.796875 -9.859375 2.328125 -10.953125 C 2.859375 -12.046875 3.613281 -12.867188 4.59375 -13.421875 C 5.570312 -13.984375 6.71875 -14.265625 8.03125 -14.265625 C 9.351562 -14.265625 10.503906 -13.984375 11.484375 -13.421875 C 12.460938 -12.867188 13.210938 -12.046875 13.734375 -10.953125 C 14.265625 -9.859375 14.53125 -8.539062 14.53125 -7 C 14.53125 -5.445312 14.265625 -4.125 13.734375 -3.03125 C 13.210938 -1.945312 12.460938 -1.125 11.484375 -0.5625 C 10.503906 -0.0078125 9.351562 0.265625 8.03125 0.265625 Z M 8.03125 -1.59375 C 9.425781 -1.59375 10.492188 -2.03125 11.234375 -2.90625 C 11.984375 -3.789062 12.359375 -5.15625 12.359375 -7 C 12.359375 -8.851562 11.984375 -10.21875 11.234375 -11.09375 C 10.492188 -11.976562 9.425781 -12.421875 8.03125 -12.421875 C 6.632812 -12.421875 5.5625 -11.976562 4.8125 -11.09375 C 4.070312 -10.207031 3.703125 -8.84375 3.703125 -7 C 3.703125 -5.15625 4.070312 -3.789062 4.8125 -2.90625 C 5.5625 -2.03125 6.632812 -1.59375 8.03125 -1.59375 Z M 8.03125 -1.59375 "/></g></g></g><g fill="#fffcef" fill-opacity="1"><g transform="translate(277.589623, 317.12242)"><g><path d="M 2.4375 5.671875 L 2.4375 -14 L 4.5 -14 L 4.5 -11.90625 L 4.78125 -11.859375 C 5.8125 -13.460938 7.335938 -14.265625 9.359375 -14.265625 C 10.523438 -14.265625 11.539062 -14 12.40625 -13.46875 C 13.28125 -12.9375 13.957031 -12.125 14.4375 -11.03125 C 14.925781 -9.945312 15.171875 -8.601562 15.171875 -7 C 15.171875 -5.394531 14.914062 -4.050781 14.40625 -2.96875 C 13.894531 -1.882812 13.191406 -1.070312 12.296875 -0.53125 C 11.398438 0 10.367188 0.265625 9.203125 0.265625 C 8.253906 0.265625 7.410156 0.101562 6.671875 -0.21875 C 5.941406 -0.550781 5.3125 -1.097656 4.78125 -1.859375 L 4.5 -1.796875 L 4.5 5.671875 Z M 8.75 -1.59375 C 11.582031 -1.59375 13 -3.394531 13 -7 C 13 -10.613281 11.582031 -12.421875 8.75 -12.421875 C 7.914062 -12.421875 7.179688 -12.226562 6.546875 -11.84375 C 5.910156 -11.46875 5.410156 -10.875 5.046875 -10.0625 C 4.679688 -9.25 4.5 -8.226562 4.5 -7 C 4.5 -5.769531 4.679688 -4.75 5.046875 -3.9375 C 5.410156 -3.132812 5.910156 -2.539062 6.546875 -2.15625 C 7.179688 -1.78125 7.914062 -1.59375 8.75 -1.59375 Z M 8.75 -1.59375 "/></g></g></g><g fill="#fffcef" fill-opacity="1"><g transform="translate(294.291633, 317.12242)"><g><path d="M 5.578125 0.265625 C 4.585938 0.265625 3.804688 -0.015625 3.234375 -0.578125 C 2.671875 -1.140625 2.390625 -1.976562 2.390625 -3.09375 L 2.390625 -19.625 L 4.453125 -19.625 L 4.453125 -3.234375 C 4.453125 -2.648438 4.5625 -2.226562 4.78125 -1.96875 C 5.007812 -1.71875 5.363281 -1.59375 5.84375 -1.59375 C 6.125 -1.59375 6.414062 -1.640625 6.71875 -1.734375 L 6.890625 -1.671875 L 7.140625 -0.046875 C 6.984375 0.0546875 6.765625 0.132812 6.484375 0.1875 C 6.203125 0.238281 5.898438 0.265625 5.578125 0.265625 Z M 5.578125 0.265625 "/></g></g></g><g fill="#fffcef" fill-opacity="1"><g transform="translate(301.906531, 317.12242)"><g><path d="M 13.34375 -6.53125 L 3.71875 -6.53125 C 3.78125 -4.820312 4.1875 -3.570312 4.9375 -2.78125 C 5.695312 -1.988281 6.738281 -1.59375 8.0625 -1.59375 C 9.0625 -1.59375 9.863281 -1.769531 10.46875 -2.125 C 11.082031 -2.476562 11.5625 -3.035156 11.90625 -3.796875 L 12.171875 -3.796875 L 13.515625 -3 C 13.109375 -1.976562 12.457031 -1.175781 11.5625 -0.59375 C 10.675781 -0.0195312 9.507812 0.265625 8.0625 0.265625 C 6.707031 0.265625 5.539062 0 4.5625 -0.53125 C 3.59375 -1.0625 2.84375 -1.867188 2.3125 -2.953125 C 1.789062 -4.035156 1.53125 -5.382812 1.53125 -7 C 1.53125 -8.582031 1.804688 -9.921875 2.359375 -11.015625 C 2.921875 -12.109375 3.679688 -12.921875 4.640625 -13.453125 C 5.597656 -13.992188 6.695312 -14.265625 7.9375 -14.265625 C 9.726562 -14.265625 11.125 -13.757812 12.125 -12.75 C 13.132812 -11.738281 13.644531 -10.238281 13.65625 -8.25 C 13.65625 -7.46875 13.640625 -6.941406 13.609375 -6.671875 Z M 11.609375 -8.25 C 11.578125 -9.738281 11.25 -10.820312 10.625 -11.5 C 10 -12.175781 9.101562 -12.515625 7.9375 -12.515625 C 6.707031 -12.515625 5.742188 -12.171875 5.046875 -11.484375 C 4.347656 -10.804688 3.921875 -9.726562 3.765625 -8.25 Z M 11.609375 -8.25 "/></g></g></g><g fill="#fffcef" fill-opacity="1"><g transform="translate(316.83156, 317.12242)"><g/></g></g><g fill="#fffcef" fill-opacity="1"><g transform="translate(299.396406, 496.351197)"><g><path d="M 9.765625 0.265625 C 8.203125 0.265625 6.828125 -0.0859375 5.640625 -0.796875 C 4.453125 -1.503906 3.523438 -2.570312 2.859375 -4 C 2.191406 -5.4375 1.859375 -7.195312 1.859375 -9.28125 C 1.859375 -11.363281 2.210938 -13.117188 2.921875 -14.546875 C 3.640625 -15.972656 4.632812 -17.039062 5.90625 -17.75 C 7.175781 -18.46875 8.640625 -18.828125 10.296875 -18.828125 C 12.078125 -18.828125 13.535156 -18.503906 14.671875 -17.859375 C 15.816406 -17.222656 16.625 -16.269531 17.09375 -15 L 15.671875 -14.171875 L 15.359375 -14.171875 C 14.878906 -15.128906 14.226562 -15.816406 13.40625 -16.234375 C 12.582031 -16.660156 11.546875 -16.875 10.296875 -16.875 C 6.222656 -16.875 4.1875 -14.34375 4.1875 -9.28125 C 4.1875 -6.644531 4.695312 -4.722656 5.71875 -3.515625 C 6.75 -2.304688 8.1875 -1.703125 10.03125 -1.703125 C 11.71875 -1.703125 12.984375 -2.085938 13.828125 -2.859375 C 14.671875 -3.628906 15.09375 -4.84375 15.09375 -6.5 L 15.09375 -8.140625 L 9.8125 -8.140625 L 9.8125 -9.890625 L 17.21875 -9.890625 L 17.21875 0 L 15.203125 0 L 15.203125 -2.484375 L 14.9375 -2.546875 C 14.4375 -1.597656 13.75 -0.890625 12.875 -0.421875 C 12 0.0351562 10.960938 0.265625 9.765625 0.265625 Z M 9.765625 0.265625 "/></g></g></g><g fill="#fffcef" fill-opacity="1"><g transform="translate(318.687482, 496.351197)"><g><path d="M 2.4375 0 L 2.4375 -14 L 4.40625 -14 L 4.40625 -11.8125 L 4.671875 -11.75 C 5.328125 -13.332031 6.554688 -14.125 8.359375 -14.125 C 9.304688 -14.125 10.019531 -13.953125 10.5 -13.609375 L 9.96875 -11.859375 L 9.71875 -11.8125 C 9.1875 -12.070312 8.609375 -12.203125 7.984375 -12.203125 C 6.867188 -12.203125 6.007812 -11.78125 5.40625 -10.9375 C 4.800781 -10.101562 4.5 -8.75 4.5 -6.875 L 4.5 0 Z M 2.4375 0 "/></g></g></g><g fill="#fffcef" fill-opacity="1"><g transform="translate(329.500637, 496.351197)"><g><path d="M 13.34375 -6.53125 L 3.71875 -6.53125 C 3.78125 -4.820312 4.1875 -3.570312 4.9375 -2.78125 C 5.695312 -1.988281 6.738281 -1.59375 8.0625 -1.59375 C 9.0625 -1.59375 9.863281 -1.769531 10.46875 -2.125 C 11.082031 -2.476562 11.5625 -3.035156 11.90625 -3.796875 L 12.171875 -3.796875 L 13.515625 -3 C 13.109375 -1.976562 12.457031 -1.175781 11.5625 -0.59375 C 10.675781 -0.0195312 9.507812 0.265625 8.0625 0.265625 C 6.707031 0.265625 5.539062 0 4.5625 -0.53125 C 3.59375 -1.0625 2.84375 -1.867188 2.3125 -2.953125 C 1.789062 -4.035156 1.53125 -5.382812 1.53125 -7 C 1.53125 -8.582031 1.804688 -9.921875 2.359375 -11.015625 C 2.921875 -12.109375 3.679688 -12.921875 4.640625 -13.453125 C 5.597656 -13.992188 6.695312 -14.265625 7.9375 -14.265625 C 9.726562 -14.265625 11.125 -13.757812 12.125 -12.75 C 13.132812 -11.738281 13.644531 -10.238281 13.65625 -8.25 C 13.65625 -7.46875 13.640625 -6.941406 13.609375 -6.671875 Z M 11.609375 -8.25 C 11.578125 -9.738281 11.25 -10.820312 10.625 -11.5 C 10 -12.175781 9.101562 -12.515625 7.9375 -12.515625 C 6.707031 -12.515625 5.742188 -12.171875 5.046875 -11.484375 C 4.347656 -10.804688 3.921875 -9.726562 3.765625 -8.25 Z M 11.609375 -8.25 "/></g></g></g><g fill="#fffcef" fill-opacity="1"><g transform="translate(344.425838, 496.351197)"><g><path d="M 13.34375 -6.53125 L 3.71875 -6.53125 C 3.78125 -4.820312 4.1875 -3.570312 4.9375 -2.78125 C 5.695312 -1.988281 6.738281 -1.59375 8.0625 -1.59375 C 9.0625 -1.59375 9.863281 -1.769531 10.46875 -2.125 C 11.082031 -2.476562 11.5625 -3.035156 11.90625 -3.796875 L 12.171875 -3.796875 L 13.515625 -3 C 13.109375 -1.976562 12.457031 -1.175781 11.5625 -0.59375 C 10.675781 -0.0195312 9.507812 0.265625 8.0625 0.265625 C 6.707031 0.265625 5.539062 0 4.5625 -0.53125 C 3.59375 -1.0625 2.84375 -1.867188 2.3125 -2.953125 C 1.789062 -4.035156 1.53125 -5.382812 1.53125 -7 C 1.53125 -8.582031 1.804688 -9.921875 2.359375 -11.015625 C 2.921875 -12.109375 3.679688 -12.921875 4.640625 -13.453125 C 5.597656 -13.992188 6.695312 -14.265625 7.9375 -14.265625 C 9.726562 -14.265625 11.125 -13.757812 12.125 -12.75 C 13.132812 -11.738281 13.644531 -10.238281 13.65625 -8.25 C 13.65625 -7.46875 13.640625 -6.941406 13.609375 -6.671875 Z M 11.609375 -8.25 C 11.578125 -9.738281 11.25 -10.820312 10.625 -11.5 C 10 -12.175781 9.101562 -12.515625 7.9375 -12.515625 C 6.707031 -12.515625 5.742188 -12.171875 5.046875 -11.484375 C 4.347656 -10.804688 3.921875 -9.726562 3.765625 -8.25 Z M 11.609375 -8.25 "/></g></g></g><g fill="#fffcef" fill-opacity="1"><g transform="translate(359.351039, 496.351197)"><g><path d="M 2.4375 0 L 2.4375 -14 L 4.40625 -14 L 4.40625 -11.8125 L 4.671875 -11.75 C 5.140625 -12.5625 5.734375 -13.179688 6.453125 -13.609375 C 7.179688 -14.046875 8.066406 -14.265625 9.109375 -14.265625 C 10.785156 -14.265625 12.003906 -13.832031 12.765625 -12.96875 C 13.523438 -12.113281 13.90625 -10.796875 13.90625 -9.015625 L 13.90625 0 L 11.828125 0 L 11.828125 -8.96875 C 11.828125 -9.8125 11.71875 -10.488281 11.5 -11 C 11.289062 -11.507812 10.957031 -11.878906 10.5 -12.109375 C 10.050781 -12.347656 9.457031 -12.46875 8.71875 -12.46875 C 7.457031 -12.46875 6.4375 -12.050781 5.65625 -11.21875 C 4.882812 -10.382812 4.5 -9.039062 4.5 -7.1875 L 4.5 0 Z M 2.4375 0 "/></g></g></g><g fill="#fffcef" fill-opacity="1"><g transform="translate(290.677656, 532.351195)"><g><path d="M 9.453125 -18.5625 C 10.722656 -18.5625 11.816406 -18.332031 12.734375 -17.875 C 13.648438 -17.414062 14.347656 -16.757812 14.828125 -15.90625 C 15.304688 -15.0625 15.546875 -14.0625 15.546875 -12.90625 C 15.546875 -11.757812 15.304688 -10.757812 14.828125 -9.90625 C 14.347656 -9.0625 13.648438 -8.410156 12.734375 -7.953125 C 11.816406 -7.492188 10.722656 -7.265625 9.453125 -7.265625 L 4.984375 -7.265625 L 4.984375 0 L 2.8125 0 L 2.8125 -18.5625 Z M 9.375 -9.125 C 11.957031 -9.125 13.25 -10.382812 13.25 -12.90625 C 13.25 -15.4375 11.957031 -16.703125 9.375 -16.703125 L 4.984375 -16.703125 L 4.984375 -9.125 Z M 9.375 -9.125 "/></g></g></g><g fill="#fffcef" fill-opacity="1"><g transform="translate(307.595422, 532.351195)"><g><path d="M 13.34375 -6.53125 L 3.71875 -6.53125 C 3.78125 -4.820312 4.1875 -3.570312 4.9375 -2.78125 C 5.695312 -1.988281 6.738281 -1.59375 8.0625 -1.59375 C 9.0625 -1.59375 9.863281 -1.769531 10.46875 -2.125 C 11.082031 -2.476562 11.5625 -3.035156 11.90625 -3.796875 L 12.171875 -3.796875 L 13.515625 -3 C 13.109375 -1.976562 12.457031 -1.175781 11.5625 -0.59375 C 10.675781 -0.0195312 9.507812 0.265625 8.0625 0.265625 C 6.707031 0.265625 5.539062 0 4.5625 -0.53125 C 3.59375 -1.0625 2.84375 -1.867188 2.3125 -2.953125 C 1.789062 -4.035156 1.53125 -5.382812 1.53125 -7 C 1.53125 -8.582031 1.804688 -9.921875 2.359375 -11.015625 C 2.921875 -12.109375 3.679688 -12.921875 4.640625 -13.453125 C 5.597656 -13.992188 6.695312 -14.265625 7.9375 -14.265625 C 9.726562 -14.265625 11.125 -13.757812 12.125 -12.75 C 13.132812 -11.738281 13.644531 -10.238281 13.65625 -8.25 C 13.65625 -7.46875 13.640625 -6.941406 13.609375 -6.671875 Z M 11.609375 -8.25 C 11.578125 -9.738281 11.25 -10.820312 10.625 -11.5 C 10 -12.175781 9.101562 -12.515625 7.9375 -12.515625 C 6.707031 -12.515625 5.742188 -12.171875 5.046875 -11.484375 C 4.347656 -10.804688 3.921875 -9.726562 3.765625 -8.25 Z M 11.609375 -8.25 "/></g></g></g><g fill="#fffcef" fill-opacity="1"><g transform="translate(322.520623, 532.351195)"><g><path d="M 8.03125 0.265625 C 6.71875 0.265625 5.570312 -0.0078125 4.59375 -0.5625 C 3.613281 -1.125 2.859375 -1.945312 2.328125 -3.03125 C 1.796875 -4.125 1.53125 -5.445312 1.53125 -7 C 1.53125 -8.539062 1.796875 -9.859375 2.328125 -10.953125 C 2.859375 -12.046875 3.613281 -12.867188 4.59375 -13.421875 C 5.570312 -13.984375 6.71875 -14.265625 8.03125 -14.265625 C 9.351562 -14.265625 10.503906 -13.984375 11.484375 -13.421875 C 12.460938 -12.867188 13.210938 -12.046875 13.734375 -10.953125 C 14.265625 -9.859375 14.53125 -8.539062 14.53125 -7 C 14.53125 -5.445312 14.265625 -4.125 13.734375 -3.03125 C 13.210938 -1.945312 12.460938 -1.125 11.484375 -0.5625 C 10.503906 -0.0078125 9.351562 0.265625 8.03125 0.265625 Z M 8.03125 -1.59375 C 9.425781 -1.59375 10.492188 -2.03125 11.234375 -2.90625 C 11.984375 -3.789062 12.359375 -5.15625 12.359375 -7 C 12.359375 -8.851562 11.984375 -10.21875 11.234375 -11.09375 C 10.492188 -11.976562 9.425781 -12.421875 8.03125 -12.421875 C 6.632812 -12.421875 5.5625 -11.976562 4.8125 -11.09375 C 4.070312 -10.207031 3.703125 -8.84375 3.703125 -7 C 3.703125 -5.15625 4.070312 -3.789062 4.8125 -2.90625 C 5.5625 -2.03125 6.632812 -1.59375 8.03125 -1.59375 Z M 8.03125 -1.59375 "/></g></g></g><g fill="#fffcef" fill-opacity="1"><g transform="translate(338.588058, 532.351195)"><g><path d="M 2.4375 5.671875 L 2.4375 -14 L 4.5 -14 L 4.5 -11.90625 L 4.78125 -11.859375 C 5.8125 -13.460938 7.335938 -14.265625 9.359375 -14.265625 C 10.523438 -14.265625 11.539062 -14 12.40625 -13.46875 C 13.28125 -12.9375 13.957031 -12.125 14.4375 -11.03125 C 14.925781 -9.945312 15.171875 -8.601562 15.171875 -7 C 15.171875 -5.394531 14.914062 -4.050781 14.40625 -2.96875 C 13.894531 -1.882812 13.191406 -1.070312 12.296875 -0.53125 C 11.398438 0 10.367188 0.265625 9.203125 0.265625 C 8.253906 0.265625 7.410156 0.101562 6.671875 -0.21875 C 5.941406 -0.550781 5.3125 -1.097656 4.78125 -1.859375 L 4.5 -1.796875 L 4.5 5.671875 Z M 8.75 -1.59375 C 11.582031 -1.59375 13 -3.394531 13 -7 C 13 -10.613281 11.582031 -12.421875 8.75 -12.421875 C 7.914062 -12.421875 7.179688 -12.226562 6.546875 -11.84375 C 5.910156 -11.46875 5.410156 -10.875 5.046875 -10.0625 C 4.679688 -9.25 4.5 -8.226562 4.5 -7 C 4.5 -5.769531 4.679688 -4.75 5.046875 -3.9375 C 5.410156 -3.132812 5.910156 -2.539062 6.546875 -2.15625 C 7.179688 -1.78125 7.914062 -1.59375 8.75 -1.59375 Z M 8.75 -1.59375 "/></g></g></g><g fill="#fffcef" fill-opacity="1"><g transform="translate(355.290068, 532.351195)"><g><path d="M 5.578125 0.265625 C 4.585938 0.265625 3.804688 -0.015625 3.234375 -0.578125 C 2.671875 -1.140625 2.390625 -1.976562 2.390625 -3.09375 L 2.390625 -19.625 L 4.453125 -19.625 L 4.453125 -3.234375 C 4.453125 -2.648438 4.5625 -2.226562 4.78125 -1.96875 C 5.007812 -1.71875 5.363281 -1.59375 5.84375 -1.59375 C 6.125 -1.59375 6.414062 -1.640625 6.71875 -1.734375 L 6.890625 -1.671875 L 7.140625 -0.046875 C 6.984375 0.0546875 6.765625 0.132812 6.484375 0.1875 C 6.203125 0.238281 5.898438 0.265625 5.578125 0.265625 Z M 5.578125 0.265625 "/></g></g></g><g fill="#fffcef" fill-opacity="1"><g transform="translate(362.904966, 532.351195)"><g><path d="M 13.34375 -6.53125 L 3.71875 -6.53125 C 3.78125 -4.820312 4.1875 -3.570312 4.9375 -2.78125 C 5.695312 -1.988281 6.738281 -1.59375 8.0625 -1.59375 C 9.0625 -1.59375 9.863281 -1.769531 10.46875 -2.125 C 11.082031 -2.476562 11.5625 -3.035156 11.90625 -3.796875 L 12.171875 -3.796875 L 13.515625 -3 C 13.109375 -1.976562 12.457031 -1.175781 11.5625 -0.59375 C 10.675781 -0.0195312 9.507812 0.265625 8.0625 0.265625 C 6.707031 0.265625 5.539062 0 4.5625 -0.53125 C 3.59375 -1.0625 2.84375 -1.867188 2.3125 -2.953125 C 1.789062 -4.035156 1.53125 -5.382812 1.53125 -7 C 1.53125 -8.582031 1.804688 -9.921875 2.359375 -11.015625 C 2.921875 -12.109375 3.679688 -12.921875 4.640625 -13.453125 C 5.597656 -13.992188 6.695312 -14.265625 7.9375 -14.265625 C 9.726562 -14.265625 11.125 -13.757812 12.125 -12.75 C 13.132812 -11.738281 13.644531 -10.238281 13.65625 -8.25 C 13.65625 -7.46875 13.640625 -6.941406 13.609375 -6.671875 Z M 11.609375 -8.25 C 11.578125 -9.738281 11.25 -10.820312 10.625 -11.5 C 10 -12.175781 9.101562 -12.515625 7.9375 -12.515625 C 6.707031 -12.515625 5.742188 -12.171875 5.046875 -11.484375 C 4.347656 -10.804688 3.921875 -9.726562 3.765625 -8.25 Z M 11.609375 -8.25 "/></g></g></g><g fill="#fffcef" fill-opacity="1"><g transform="translate(377.829995, 532.351195)"><g/></g></g></svg>